<?xml version="1.0" encoding="UTF-8" standalone="no"?>
<svg width="200px" height="200px" viewBox="0 0 200 200" version="1.1" xmlns="http://www.w3.org/2000/svg" xmlns:xlink="http://www.w3.org/1999/xlink" xmlns:sketch="http://www.bohemiancoding.com/sketch/ns">
    <!-- Generator: Sketch 3.4.4 (17249) - http://www.bohemiancoding.com/sketch -->
    <title>app@2x</title>
    <desc>Created with Sketch.</desc>
    <defs>
        <path id="path-1" d="M0.0981818182,74.789717 L71.7925375,74.789717 L71.7925375,0.196981132 L0.0981818182,0.196981132"></path>
    </defs>
    <g id="Page-1" stroke="none" stroke-width="1" fill="none" fill-rule="evenodd" sketch:type="MSPage">
        <g id="app" sketch:type="MSArtboardGroup">
            <g sketch:type="MSLayerGroup" transform="translate(64.000000, 63.000000)">
                <g id="Group-3">
                    <mask id="mask-2" sketch:name="Clip 2" fill="white">
                        <use xlink:href="#path-1"></use>
                    </mask>
                    <g id="Clip-2"></g>
                    <path d="M69.516996,23.7871698 L68.0058498,24.4092453 C67.4933123,23.7370755 66.8871462,23.1382075 66.2234941,22.6406604 L66.8490119,21.1338679 C67.0411067,20.6759434 66.8216917,20.1500943 66.3609486,19.964434 L63.8688379,18.9359434 C63.4069565,18.7449057 62.8836047,18.9616981 62.6915099,19.4210377 L62.0594466,20.9278302 C61.235004,20.8115094 60.384664,20.8072642 59.544,20.9238679 L58.9184822,19.4210377 C58.7263874,18.9616981 58.2112885,18.7409434 57.75083,18.930566 L55.2544506,19.9604717 C54.7979763,20.1500943 54.5868142,20.6677358 54.7777708,21.1259434 L55.403004,22.6299057 C54.7271146,23.1382075 54.1263557,23.7410377 53.6263399,24.4010377 L52.1097866,23.7792453 C51.6490435,23.5893396 51.1217075,23.8061321 50.9338814,24.2654717 L49.8982767,26.7481132 C49.7073202,27.2060377 49.9253123,27.7265094 50.3832095,27.9175472 L51.9065929,28.5421698 C51.7893439,29.3620755 51.7853597,30.2131132 51.9026087,31.0451887 L50.3900395,31.6672642 C49.929581,31.8568868 49.7073202,32.370283 49.8982767,32.8284906 L50.9338814,35.3068868 C51.1259763,35.7648113 51.6450593,35.9708491 52.1055178,35.7798113 L53.618087,35.1577358 C54.1292016,35.8313208 54.7313834,36.4287736 55.3990198,36.9263208 L54.7695178,38.4370755 C54.5785613,38.8964151 54.7979763,39.4208491 55.2572964,39.6065094 L57.75083,40.6364151 C58.2112885,40.8274528 58.7346403,40.6092453 58.9253123,40.1513208 L59.559083,38.6431132 C60.384664,38.759717 61.235004,38.759717 62.075668,38.6470755 L62.6997628,40.1513208 C62.8904348,40.6092453 63.4069565,40.8274528 63.8648538,40.6406604 L66.3609486,39.614717 C66.8216917,39.4236792 67.0288696,38.9074528 66.837913,38.4492453 L66.2123953,36.9492453 C66.8871462,36.4412264 67.4893281,35.8381132 67.9893439,35.1781132 L69.5058972,35.8001887 C69.9666403,35.9898113 70.4936917,35.7730189 70.6803794,35.3150943 L71.7174071,32.835283 C71.9080791,32.3770755 71.6889486,31.8568868 71.2324743,31.6672642 L69.7170593,31.0369811 C69.8343083,30.2170755 69.8371542,29.370283 69.7199051,28.5342453 L71.2324743,27.9135849 C71.6929328,27.7236792 71.916332,27.210283 71.7242372,26.7509434 L70.6926166,24.2736792 C70.4979605,23.8061321 69.9774545,23.6000943 69.516996,23.7871698 M62.5321423,33.9192453 C60.2349723,34.8636792 57.6022767,33.779717 56.6526166,31.4949057 C55.7001107,29.2117925 56.7943399,26.5921698 59.0875257,25.6491509 C61.3835573,24.704717 64.0159684,25.7872642 64.965913,28.0720755 C65.9195573,30.3566038 64.8295968,32.9762264 62.5321423,33.9192453" id="Fill-1" fill="#D0E8F6" sketch:type="MSShapeGroup" mask="url(#mask-2)"></path>
                </g>
                <path d="M58.5590514,43.080283 L58.5590514,62.8550943 L25.5568696,62.8550943 L25.5568696,12.8779245 L58.5590514,12.8779245 L58.5590514,16.4716981 L62.3087431,16.4716981 L62.3087431,6.16471698 C62.3087431,2.87179245 59.6216917,0.198113208 56.3094071,0.198113208 L27.8065138,0.198113208 C24.4942292,0.198113208 21.8071779,2.87179245 21.8071779,6.16471698 L21.8071779,68.8231132 C21.8071779,72.1160377 24.4942292,74.789434 27.8065138,74.789434 L56.3094071,74.789434 C59.6216917,74.789434 62.3087431,72.1160377 62.3087431,68.8231132 L62.3087431,43.080283 L58.5590514,43.080283 L58.5590514,43.080283 Z M39.0860395,6.91132075 L45.0856601,6.91132075 C45.5000158,6.91132075 45.8363953,7.24471698 45.8363953,7.65679245 C45.8363953,8.06858491 45.5000158,8.40339623 45.0856601,8.40339623 L39.0860395,8.40339623 C38.6719684,8.40339623 38.3353043,8.06858491 38.3353043,7.65679245 C38.3353043,7.24471698 38.6719684,6.91132075 39.0860395,6.91132075 L39.0860395,6.91132075 Z M41.8359842,71.2582075 C40.1788458,71.2582075 38.8353202,69.9220755 38.8353202,68.2743396 C38.8353202,66.6277358 40.1788458,65.2904717 41.8359842,65.2904717 C43.491415,65.2904717 44.8363636,66.6277358 44.8363636,68.2743396 C44.8363636,69.9220755 43.491415,71.2582075 41.8359842,71.2582075 L41.8359842,71.2582075 Z" id="Fill-4" fill="#D0E8F6" sketch:type="MSShapeGroup"></path>
                <path d="M0.0981818182,19.2390566 L18.0993202,19.2390566 L18.0993202,22.9683962 L0.0981818182,22.9683962 L0.0981818182,19.2390566 Z" id="Fill-5" fill="#D0E8F6" sketch:type="MSShapeGroup"></path>
                <path d="M4.59889328,26.6974528 L18.0996047,26.6974528 L18.0996047,30.4267925 L4.59889328,30.4267925 L4.59889328,26.6974528 Z" id="Fill-6" fill="#D0E8F6" sketch:type="MSShapeGroup"></path>
                <path d="M13.5988933,34.1572642 L18.0996047,34.1572642 L18.0996047,37.8866038 L13.5988933,37.8866038 L13.5988933,34.1572642 Z" id="Fill-7" fill="#D0E8F6" sketch:type="MSShapeGroup"></path>
            </g>
        </g>
    </g>
</svg>