<?xml version="1.0" encoding="UTF-8" standalone="no"?>
<svg width="200px" height="200px" viewBox="0 0 200 200" version="1.1" xmlns="http://www.w3.org/2000/svg" xmlns:xlink="http://www.w3.org/1999/xlink" xmlns:sketch="http://www.bohemiancoding.com/sketch/ns">
    <!-- Generator: Sketch 3.4.4 (17249) - http://www.bohemiancoding.com/sketch -->
    <title>car@2x</title>
    <desc>Created with Sketch.</desc>
    <defs></defs>
    <g id="Page-1" stroke="none" stroke-width="1" fill="none" fill-rule="evenodd" sketch:type="MSPage">
        <g id="car" sketch:type="MSArtboardGroup" fill="#D0E8F6">
            <g sketch:type="MSLayerGroup" transform="translate(45.000000, 82.000000)">
                <path d="M110.063788,22.9137097 C110.076121,22.7624194 109.998758,22.156129 109.998758,21.3409677 C109.998758,20.5246774 109.863091,19.1314516 109.762182,18.8254839 C109.661273,18.5195161 109.357424,17.8398387 108.951545,17.0912903 C108.546788,16.343871 108.310212,16.1056452 107.163212,15.4598387 C106.015091,14.8140323 103.820879,14.2359677 98.5881818,12.9782258 C93.3566061,11.7204839 80.0556667,10.6670968 80.0556667,10.6670968 L78.1092424,10.7122581 C78.1092424,10.7122581 76.2188788,9.46580645 75.702,9.12596774 C75.184,8.78612903 67.3523333,4.32193548 65.2590303,3.16580645 C63.1668485,2.01080645 60.8257576,1.60209677 59.9702727,1.44403226 C59.1159091,1.28483871 58.5082121,1.23967742 51.0588788,0.60516129 C43.6095455,-0.0293548387 35.5558788,0.843387097 34.7710303,0.928064516 C33.9861818,1.01274194 31.7157273,1.31870968 31.7157273,1.31870968 C31.7157273,1.31870968 31.4544848,0.860322581 31.3703939,0.758709677 C31.286303,0.655967742 30.9992727,0.758709677 30.9992727,0.758709677 C30.9734848,1.50612903 30.8277273,1.4666129 30.6920606,1.51177419 C30.5575152,1.55693548 29.7917273,1.69354839 27.9013636,2.2366129 C26.011,2.78080645 25.1566364,3.37016129 23.6261818,4.04983871 C22.0957273,4.72951613 16.2441212,7.81177419 15.2092424,8.35596774 C14.1743636,8.89903226 13.6787879,8.90016129 12.5082424,9.08080645 C11.3388182,9.26258065 8.54812121,9.625 6.79230303,9.85193548 C5.03760606,10.0777419 4.90193939,10.8940323 4.5420303,11.4833871 C4.18212121,12.0727419 4.13727273,12.2996774 3.77736364,12.7535484 C3.41633333,13.2062903 3.14612121,14.7485484 2.83218182,16.3348387 C2.51712121,17.921129 2.11124242,18.5579032 1.70648485,18.9654839 C1.30172727,19.3730645 1.07636364,20.0120968 0.986666667,20.2390323 C0.895848485,20.4648387 1.43627273,23.5109677 1.5259697,24.1454839 C1.61678788,24.78 1.79618182,24.6151613 2.33660606,25.34 C2.8770303,26.0659677 4.00160606,27.4874194 4.00160606,27.4874194 L13.5890909,30.483871 L14.5701515,30.483871 C14.3503939,30.483871 14.2304242,27.8701613 14.2304242,27.0504839 C14.2304242,22.4304839 17.9629394,18.1367742 22.5498182,18.1367742 C27.1378182,18.1367742 30.8703333,21.6277419 30.8703333,26.2477419 C30.8703333,27.5551613 30.5709697,28.6593548 30.0383939,29.7635484 L30.6920606,29.7556452 L46.176,29.9340323 C46.176,29.9340323 73.9910303,30.8417742 77.3221515,30.8417742 C80.3931515,30.8417742 82.7701212,30.6306452 83.1221818,30.5990323 C82.2521212,29.2758065 81.7442121,27.686129 81.7442121,25.9835484 C81.7442121,21.3646774 85.4767273,17.603871 90.0636061,17.603871 C94.6516061,17.603871 98.3841212,21.3612903 98.3841212,25.9812903 C98.3841212,27.9785484 97.6844848,30.5177419 96.5217879,31.9595161 L98.1161515,32.7419355 L100.107424,32.7419355 C100.107424,32.7419355 100.817152,31.6298387 101.119879,31.5282258 C101.423727,31.4266129 103.179545,31.0743548 103.179545,31.0743548 C103.179545,31.0743548 108.681333,29.7093548 108.985182,29.5727419 C109.28903,29.4372581 109.693788,29.2182258 109.761061,28.9122581 C109.828333,28.6074194 109.866455,27.44 109.866455,27.44 L109.502061,26.9432258 L109.537939,26.0704839 L109.919152,25.8006452 C109.919152,25.8006452 110.021182,24.3622581 110.058182,24.1590323 C110.091818,23.9783871 110.014455,23.5154839 110.063788,22.9137097 L110.063788,22.9137097 Z M9.27578788,14.07 C8.92036364,14.4109677 7.70160606,15.5196774 7.46390909,15.6732258 C7.22733333,15.8267742 7.00757576,16.0480645 6.63421212,16.1169355 C6.2619697,16.1846774 5.07684848,16.2185484 4.55212121,16.2185484 C4.02627273,16.2185484 3.43427273,16.3382258 3.40063636,16.2185484 C3.36587879,16.1 3.40063636,14.036129 4.70460606,12.1269355 C4.70460606,12.1269355 6.58375758,11.9564516 7.39663636,12.041129 C8.20951515,12.1269355 8.61539394,12.1269355 9.00557576,12.4340323 C9.39463636,12.74 9.63121212,13.0132258 9.69960606,13.2175806 C9.76687879,13.4230645 9.63121212,13.7290323 9.27578788,14.07 L9.27578788,14.07 Z M30.9959091,10.1612903 L24.1206364,10.1612903 C24.1206364,10.1612903 25.8540303,7.66387097 27.1815455,6.75725806 C28.5090606,5.85064516 30.6864545,4.31064516 30.8893939,4.1966129 C31.0912121,4.08370968 31.2235152,4.36370968 31.2235152,4.36370968 C31.2235152,4.36370968 31.0295455,5.64516129 30.9959091,10.1612903 L30.9959091,10.1612903 Z M46.3060606,9.76048387 L32.8492727,9.30774194 L32.9838182,3.64225806 C32.9838182,3.64225806 34.3113333,3.03032258 35.2789394,2.78080645 C36.2465455,2.53129032 37.8902424,2.25919355 38.7670303,2.19145161 C39.6449394,2.12370968 42.0757273,1.94193548 43.2462727,1.91935484 C44.415697,1.89677419 46.419303,1.91935484 46.419303,1.91935484 L46.3060606,9.76048387 L46.3060606,9.76048387 Z M66.2042121,8.69580645 C65.9788485,8.78612903 65.1020606,9.05822581 64.9888182,9.44322581 C64.876697,9.82822581 64.6064848,10.7122581 64.6289091,10.8714516 C64.6513333,11.0295161 64.6289091,11.2112903 64.6289091,11.2112903 C64.6289091,11.2112903 52.5960606,9.80564516 49.4678788,9.76048387 L48.2457576,1.90919355 C48.2457576,1.90919355 49.8659091,1.96564516 51.1037273,2.0333871 C52.3415455,2.10112903 54.3451515,2.30548387 55.6502424,2.60016129 C56.9553333,2.89370968 57.8332424,3.09806452 58.4633636,3.34758065 C59.0934848,3.59709677 60.1059394,4.02725806 60.939,4.45741935 C61.7709394,4.88870968 63.4594848,5.84048387 64.2241515,6.36096774 C64.9888182,6.88258065 67.4644545,8.58177419 67.4644545,8.58177419 C67.4644545,8.58177419 66.4295758,8.60435484 66.2042121,8.69580645 L66.2042121,8.69580645 Z M76.2390606,10.8545161 C75.8892424,10.8883871 75.3566667,10.9053226 74.9238788,10.8545161 C74.4910909,10.8037097 73.7084848,10.43 73.0424848,10.1579032 C72.3764848,9.88693548 71.5602424,9.32693548 70.7944545,8.88548387 C70.0286667,8.44403226 67.2985152,6.49193548 65.9665152,5.71177419 C64.6345152,4.93048387 60.5891818,2.63967742 60.4221212,2.55387097 C60.2561818,2.46919355 60.4725758,2.38451613 60.8717273,2.36758065 C61.2708788,2.35064516 62.9201818,2.55387097 62.9201818,2.55387097 C66.1660909,3.69193548 77.271697,10.7867742 77.271697,10.7867742 C77.271697,10.7867742 76.5888788,10.8206452 76.2390606,10.8545161 L76.2390606,10.8545161 Z M107.082485,21.0959677 C106.867212,21.2201613 106.682212,21.2517742 106.375,21.0959677 C106.067788,20.9412903 103.945333,19.9195161 103.638121,19.8574194 C103.330909,19.7953226 102.884667,19.7027419 102.661545,19.5785484 C102.438424,19.4554839 99.7946061,18.1548387 97.9793636,16.063871 C97.9793636,16.063871 98.5332424,15.5072581 100.055848,15.4914516 C101.577333,15.4756452 102.699667,15.8787097 103.622424,16.4206452 C104.545182,16.9625806 105.698909,17.675 105.975848,17.9380645 C106.251667,18.201129 106.775273,18.9756452 106.943455,19.4396774 C107.112758,19.9037097 107.343727,20.3225806 107.343727,20.4930645 C107.343727,20.6624194 107.297758,20.9729032 107.082485,21.0959677 L107.082485,21.0959677 Z M109.402273,21.6853226 C109.402273,22.0714516 109.294636,22.2735484 109.171303,22.2577419 C109.04797,22.2419355 108.786727,22.0251613 108.664515,21.9167742 C108.541182,21.8083871 108.371879,21.5769355 108.188,21.2009677 C108.003,20.826129 107.495091,18.6346774 107.449121,18.201129 C107.403152,17.7675806 107.434545,17.0551613 107.449121,16.9783871 C107.464818,16.9004839 107.925636,16.6058065 107.925636,16.6058065 C108.125212,16.4725806 108.987424,18.5420968 109.248667,19.3154839 C109.509909,20.09 109.402273,21.2980645 109.402273,21.6853226 L109.402273,21.6853226 Z" id="Fill-1" sketch:type="MSShapeGroup"></path>
                <path d="M22.5498182,18.5612903 C18.2611818,18.5612903 14.7708485,22.0759677 14.7708485,26.3956452 C14.7708485,27.2187097 14.8986667,28.0124194 15.133,28.7587097 C16.1308788,31.9267742 19.0785455,34.228871 22.5498182,34.228871 C25.5524242,34.228871 28.1614848,32.5070968 29.4576061,29.9927419 C30.0137273,28.9145161 30.3299091,27.6917742 30.3299091,26.3956452 C30.3299091,22.0759677 26.8395758,18.5612903 22.5498182,18.5612903 L22.5498182,18.5612903 Z M23.2326364,23.0051613 C23.3548485,22.4237097 23.4232424,21.6232258 23.5039697,21.3658065 C23.584697,21.1083871 23.7237273,20.7843548 23.8380909,20.7798387 C23.9535758,20.7764516 25.1768182,21.1580645 25.8327273,21.7846774 C26.4886364,22.4124194 26.8720909,22.7680645 27.2656364,23.6272581 C27.2656364,23.6272581 26.7005455,24.0167742 26.0278182,24.2335484 C25.3539697,24.4503226 24.9066061,24.6106452 24.5186667,24.676129 C24.1307273,24.7404839 23.8997576,24.778871 23.7046667,24.6704839 C23.5084545,24.5632258 23.2685152,24.4379032 23.236,24.1556452 C23.2023636,23.8722581 23.1104242,23.5877419 23.2326364,23.0051613 L23.2326364,23.0051613 Z M23.775303,26.6293548 C23.9076061,26.6293548 24.0141212,26.7366129 24.0141212,26.8698387 C24.0141212,27.0030645 23.9076061,27.1103226 23.775303,27.1103226 C23.643,27.1103226 23.5364848,27.0030645 23.5364848,26.8698387 C23.5364848,26.7366129 23.643,26.6293548 23.775303,26.6293548 L23.775303,26.6293548 Z M23.4770606,25.6132258 C23.3458788,25.6132258 23.2382424,25.5048387 23.2382424,25.3716129 C23.2382424,25.2395161 23.3458788,25.131129 23.4770606,25.131129 C23.6093636,25.131129 23.717,25.2395161 23.717,25.3716129 C23.717,25.5048387 23.6093636,25.6132258 23.4770606,25.6132258 L23.4770606,25.6132258 Z M22.5845758,27.5280645 C22.7168788,27.5280645 22.8245152,27.6353226 22.8245152,27.7685484 C22.8245152,27.9017742 22.7168788,28.0090323 22.5845758,28.0090323 C22.4533939,28.0090323 22.3457576,27.9017742 22.3457576,27.7685484 C22.3457576,27.6353226 22.4533939,27.5280645 22.5845758,27.5280645 L22.5845758,27.5280645 Z M22.2291515,25.0724194 C22.2291515,25.2056452 22.1215152,25.3129032 21.9903333,25.3129032 C21.8580303,25.3129032 21.7515152,25.2056452 21.7515152,25.0724194 C21.7515152,24.9391935 21.8580303,24.8319355 21.9903333,24.8319355 C22.1215152,24.8319355 22.2291515,24.9391935 22.2291515,25.0724194 L22.2291515,25.0724194 Z M19.409303,21.5848387 C20.1896667,21.1253226 20.6359091,20.8543548 21.5665152,20.7143548 C21.5665152,20.7143548 21.7795455,21.3691935 21.7986061,22.0804839 C21.8165455,22.7917742 21.8445758,23.2693548 21.7986061,23.6622581 C21.7515152,24.0562903 21.7234848,24.29 21.5665152,24.4491935 C21.407303,24.6083871 21.222303,24.8048387 20.9431212,24.7585484 C20.6639394,24.711129 20.3668182,24.7201613 19.8465758,24.4401613 C19.3252121,24.1590323 18.5818485,23.868871 18.3587273,23.7187097 C18.1356061,23.5696774 17.8653939,23.345 17.8934242,23.2320968 C17.9214545,23.1203226 18.6278182,22.0432258 19.409303,21.5848387 L19.409303,21.5848387 Z M21.6337879,26.5706452 C21.6337879,26.7027419 21.5272727,26.811129 21.3949697,26.811129 C21.2626667,26.811129 21.1561515,26.7027419 21.1561515,26.5706452 C21.1561515,26.4374194 21.2626667,26.3301613 21.3949697,26.3301613 C21.5272727,26.3301613 21.6337879,26.4374194 21.6337879,26.5706452 L21.6337879,26.5706452 Z M20.143697,28.6062903 C19.7097879,29.0093548 19.1940303,29.6224194 18.981,29.785 C18.7668485,29.9487097 18.4686061,30.1316129 18.3721818,30.0683871 C18.2757576,30.0051613 17.4965152,28.98 17.3216061,28.0869355 C17.146697,27.193871 17.0379394,26.6801613 17.2106061,25.7498387 C17.2106061,25.7498387 17.8956667,25.761129 18.5695152,25.9756452 C19.2433636,26.1912903 19.699697,26.321129 20.054,26.493871 C20.4071818,26.6666129 20.6179697,26.7693548 20.7155152,26.9725806 C20.8130606,27.1746774 20.9363939,27.4162903 20.8018485,27.6658065 C20.6661818,27.9164516 20.5776061,28.2020968 20.143697,28.6062903 L20.143697,28.6062903 Z M24.9189394,31.4243548 C24.8337273,31.5022581 23.6519697,32.0012903 22.7505152,31.9459677 C21.8479394,31.8895161 21.3265758,31.8658065 20.476697,31.4616129 C20.476697,31.4616129 20.6605758,30.7977419 21.037303,30.1959677 C21.4151515,29.5941935 21.6550909,29.1809677 21.9107273,28.8806452 C22.1663636,28.5803226 22.3188485,28.4008065 22.5386061,28.3567742 C22.7572424,28.3127419 23.0207273,28.2540323 23.2270303,28.4493548 C23.4322121,28.6435484 23.6856061,28.8027419 23.9625455,29.3277419 C24.2406061,29.8527419 24.6991818,30.5098387 24.8012121,30.7593548 C24.9043636,31.008871 25.0041515,31.3464516 24.9189394,31.4243548 L24.9189394,31.4243548 Z M27.5963939,28.1456452 C27.2028485,28.9653226 26.9830909,29.4406452 26.2890606,30.0796774 C26.2890606,30.0796774 25.7486364,29.6562903 25.3393939,29.0759677 C24.9290303,28.4967742 24.642,28.1151613 24.4626061,27.7629032 C24.2832121,27.4106452 24.176697,27.2006452 24.219303,26.9804839 C24.2630303,26.7591935 24.3078788,26.4916129 24.5657576,26.3741935 C24.8225152,26.2556452 25.064697,26.0806452 25.6522121,26.0219355 C26.2397273,25.9620968 27.0178485,25.7848387 27.2858182,25.7837097 C27.5537879,25.7825806 27.9024848,25.8175806 27.9417273,25.9270968 C27.9809697,26.0354839 27.9910606,27.3259677 27.5963939,28.1456452 L27.5963939,28.1456452 Z" id="Fill-2" sketch:type="MSShapeGroup"></path>
                <path d="M90.0636061,18.1458065 C85.7749697,18.1458065 82.2846364,21.6593548 82.2846364,25.9790323 C82.2846364,27.7143548 82.8474848,29.3187097 83.7993939,30.6182258 C85.2166061,32.5545161 87.4971515,33.8133871 90.0636061,33.8133871 C92.3542424,33.8133871 94.4161515,32.8119355 95.8412121,31.221129 C97.0846364,29.8312903 97.843697,27.9932258 97.843697,25.9801613 C97.843697,21.6604839 94.3544848,18.1458065 90.0636061,18.1458065 L90.0636061,18.1458065 Z M90.7464242,22.5896774 C90.8686364,22.0082258 90.9370303,21.2077419 91.0177576,20.9503226 C91.0984848,20.6929032 91.2375152,20.368871 91.3518788,20.3643548 C91.4673636,20.3598387 92.6906061,20.7425806 93.3465152,21.3691935 C94.0024242,21.9958065 94.3858788,22.3514516 94.7794242,23.2117742 C94.7794242,23.2117742 94.2143333,23.6012903 93.5416061,23.8180645 C92.8677576,24.0348387 92.4203939,24.1951613 92.0324545,24.2606452 C91.6445152,24.325 91.4135455,24.3633871 91.2184545,24.255 C91.0222424,24.1466129 90.782303,24.0224194 90.7497879,23.7390323 C90.7161515,23.4567742 90.6242121,23.171129 90.7464242,22.5896774 L90.7464242,22.5896774 Z M91.2890909,26.213871 C91.4202727,26.213871 91.5279091,26.321129 91.5279091,26.4543548 C91.5279091,26.5875806 91.4202727,26.6948387 91.2890909,26.6948387 C91.1567879,26.6948387 91.0491515,26.5875806 91.0491515,26.4543548 C91.0491515,26.321129 91.1567879,26.213871 91.2890909,26.213871 L91.2890909,26.213871 Z M90.9908485,25.1966129 C90.8596667,25.1966129 90.7520303,25.0893548 90.7520303,24.956129 C90.7520303,24.8240323 90.8596667,24.7156452 90.9908485,24.7156452 C91.1231515,24.7156452 91.2307879,24.8240323 91.2307879,24.956129 C91.2307879,25.0893548 91.1231515,25.1966129 90.9908485,25.1966129 L90.9908485,25.1966129 Z M90.0983636,27.1125806 C90.2306667,27.1125806 90.338303,27.2198387 90.338303,27.3530645 C90.338303,27.4862903 90.2306667,27.5935484 90.0983636,27.5935484 C89.9671818,27.5935484 89.8595455,27.4862903 89.8595455,27.3530645 C89.8595455,27.2198387 89.9671818,27.1125806 90.0983636,27.1125806 L90.0983636,27.1125806 Z M89.7429394,24.6569355 C89.7429394,24.7901613 89.635303,24.8974194 89.5041212,24.8974194 C89.3718182,24.8974194 89.265303,24.7901613 89.265303,24.6569355 C89.265303,24.5237097 89.3718182,24.4164516 89.5041212,24.4164516 C89.635303,24.4164516 89.7429394,24.5237097 89.7429394,24.6569355 L89.7429394,24.6569355 Z M86.9230909,21.1693548 C87.7034545,20.7098387 88.149697,20.438871 89.0791818,20.298871 C89.0791818,20.298871 89.2933333,20.9537097 89.3123939,21.665 C89.3303333,22.3762903 89.3583636,22.853871 89.3123939,23.2467742 C89.265303,23.6408065 89.2372727,23.8745161 89.0791818,24.0337097 C88.9222121,24.1929032 88.7360909,24.3893548 88.4569091,24.3419355 C88.1777273,24.2956452 87.8806061,24.3046774 87.3592424,24.0246774 C86.839,23.7435484 86.0956364,23.4533871 85.8725152,23.3032258 C85.6493939,23.1530645 85.3791818,22.9283871 85.4072121,22.8166129 C85.4352424,22.7037097 86.1416061,21.6277419 86.9230909,21.1693548 L86.9230909,21.1693548 Z M89.1475758,26.1551613 C89.1475758,26.2872581 89.0410606,26.3956452 88.9087576,26.3956452 C88.7764545,26.3956452 88.6699394,26.2872581 88.6699394,26.1551613 C88.6699394,26.0219355 88.7764545,25.9135484 88.9087576,25.9135484 C89.0410606,25.9135484 89.1475758,26.0219355 89.1475758,26.1551613 L89.1475758,26.1551613 Z M87.6574848,28.1896774 C87.2235758,28.593871 86.7078182,29.2069355 86.4947879,29.3695161 C86.2806364,29.5332258 85.9823939,29.716129 85.8859697,29.6529032 C85.7895455,29.5896774 85.010303,28.5645161 84.8353939,27.6714516 C84.6604848,26.7783871 84.5517273,26.2646774 84.7243939,25.3343548 C84.7243939,25.3343548 85.4094545,25.3456452 86.0821818,25.5601613 C86.7560303,25.7758065 87.2134848,25.9056452 87.5677879,26.0783871 C87.9209697,26.251129 88.1317576,26.353871 88.229303,26.5570968 C88.3268485,26.7591935 88.4501818,27.0008065 88.3156364,27.2503226 C88.1799697,27.5009677 88.0913939,27.7866129 87.6574848,28.1896774 L87.6574848,28.1896774 Z M92.4327273,31.008871 C92.3475152,31.0867742 91.1657576,31.5858065 90.264303,31.5293548 C89.3617273,31.4740323 88.8403636,31.4503226 87.9904848,31.046129 C87.9904848,31.046129 88.1743636,30.3822581 88.5510909,29.7804839 C88.9289394,29.1787097 89.1688788,28.7654839 89.4245152,28.4651613 C89.6801515,28.1637097 89.8326364,27.9853226 90.0523939,27.9412903 C90.2710303,27.8972581 90.5345152,27.8385484 90.7408182,28.0327419 C90.946,28.2280645 91.1993939,28.3872581 91.4763333,28.9122581 C91.7543939,29.436129 92.2129697,30.0943548 92.315,30.343871 C92.4181515,30.5933871 92.5179394,30.9309677 92.4327273,31.008871 L92.4327273,31.008871 Z M95.1101818,27.7301613 C94.7166364,28.5498387 94.4968788,29.0251613 93.8028485,29.6641935 C93.8028485,29.6641935 93.2624242,29.2408065 92.8531818,28.6604839 C92.4428182,28.0801613 92.1557879,27.6996774 91.9763939,27.3474194 C91.797,26.9951613 91.6904848,26.7851613 91.7330909,26.565 C91.7768182,26.3437097 91.8216667,26.076129 92.0795455,25.9575806 C92.336303,25.8401613 92.5784848,25.6651613 93.166,25.6053226 C93.7535152,25.5466129 94.5316364,25.3693548 94.7996061,25.3682258 C95.0675758,25.3670968 95.4162727,25.4020968 95.4555152,25.5116129 C95.4947576,25.62 95.5048485,26.9104839 95.1101818,27.7301613 L95.1101818,27.7301613 Z" id="Fill-3" sketch:type="MSShapeGroup"></path>
            </g>
        </g>
    </g>
</svg>