<svg xmlns="http://www.w3.org/2000/svg" xmlns:xlink="http://www.w3.org/1999/xlink" version="1.1" x="0px" y="0px" width="76px" height="68px" viewBox="0 0 76 68" enable-background="new 0 0 76 68" xml:space="preserve"><rect x="59.1" y="31.6" width="7.3" height="4.1"/><rect x="38.6" y="51" width="4.1" height="7.3"/><rect x="51.9" y="16.7" transform="matrix(-0.7071 0.7071 -0.7071 -0.7071 108.1183 -7.2496)" width="7.3" height="4.1"/><rect x="51.9" y="46.5" transform="matrix(-0.7071 -0.7071 0.7071 -0.7071 60.5399 122.1174)" width="7.3" height="4.1"/><path d="M29 44.7l9.7-9.7V15.4h6.2v22c-0.4 0.4-11.5 11.6-11.5 11.6L29 44.7z"/><path d="M42.2 0.8v5.8c15.1 0 27.4 12.3 27.4 27.4c0 15.1-12.3 27.4-27.4 27.4c-13.9 0-25.3-10.4-27.1-23.7l4.2 4.1l4.1-4.1L12 26.2 L0.5 37.6l4.1 4.1l4.5-4.5c1.7 16.8 15.9 30 33.1 30c18.3 0 33.2-14.9 33.2-33.2C75.5 15.7 60.6 0.8 42.2 0.8z"/></svg>