<?xml version="1.0" encoding="UTF-8" standalone="no"?>
<svg width="200px" height="200px" viewBox="0 0 200 200" version="1.1" xmlns="http://www.w3.org/2000/svg" xmlns:xlink="http://www.w3.org/1999/xlink" xmlns:sketch="http://www.bohemiancoding.com/sketch/ns">
    <!-- Generator: Sketch 3.4.4 (17249) - http://www.bohemiancoding.com/sketch -->
    <title>complete_control@2x</title>
    <desc>Created with Sketch.</desc>
    <defs></defs>
    <g id="Page-1" stroke="none" stroke-width="1" fill="none" fill-rule="evenodd" sketch:type="MSPage">
        <g id="complete_control" sketch:type="MSArtboardGroup" fill="#D0E8F6">
            <g sketch:type="MSLayerGroup" transform="translate(63.000000, 64.000000)">
                <path d="M4.55511111,16.7368182 C3.78496296,16.7368182 3.14225926,17.3763636 3.14225926,18.1440909 L3.14225926,69.0240909 C3.14225926,69.7918182 3.78496296,70.4313636 4.55511111,70.4313636 L69.819,70.4313636 C70.5905185,70.4313636 71.2318519,69.7918182 71.2318519,69.0240909 L71.2318519,18.1440909 C71.2318519,17.3763636 70.5905185,16.7368182 69.819,16.7368182 L4.55511111,16.7368182 L4.55511111,16.7368182 Z M69.819,72.9868182 L4.55511111,72.9868182 C2.37074074,72.9868182 0.572814815,71.1977273 0.572814815,69.0240909 L0.572814815,18.1440909 C0.572814815,15.9704545 2.37074074,14.1813636 4.55511111,14.1813636 L69.819,14.1813636 C72.0033704,14.1813636 73.8026667,15.9704545 73.8026667,18.1440909 L73.8026667,69.0240909 C73.8026667,71.1977273 72.0033704,72.9868182 69.819,72.9868182 L69.819,72.9868182 Z" id="Fill-1" sketch:type="MSShapeGroup"></path>
                <path d="M69.9478148,10.3454545 L67.3783704,10.3454545 C67.3783704,9.06772727 66.8644815,9.06772727 66.2217778,9.06772727 L8.15233333,9.06772727 C7.50962963,9.06772727 6.99711111,9.06772727 6.99711111,10.3454545 L4.4262963,10.3454545 C4.4262963,7.78863636 6.09677778,6.50954545 8.15233333,6.50954545 L66.3505926,6.50954545 C68.2773333,6.50954545 69.9478148,7.78863636 69.9478148,10.3454545" id="Fill-2" sketch:type="MSShapeGroup"></path>
                <path d="M63.5248889,3.95409091 L60.9540741,3.95409091 C60.9540741,2.675 60.4415556,2.675 60.3127407,2.675 L14.0627407,2.675 C13.9339259,2.675 13.420037,2.675 13.420037,3.95409091 L10.8505926,3.95409091 C10.8505926,1.39590909 12.2634444,0.118181818 14.0627407,0.118181818 L60.4415556,0.118181818 C62.1106667,0.118181818 63.5248889,1.39590909 63.5248889,3.95409091" id="Fill-3" sketch:type="MSShapeGroup"></path>
                <path d="M24.9818519,39.7495455 C24.2117037,39.7495455 23.6978148,40.2595455 23.6978148,41.0272727 L23.6978148,53.8113636 C23.6978148,54.5777273 24.2117037,55.0904545 24.9818519,55.0904545 L28.8367037,55.0904545 C29.6082222,55.0904545 30.1207407,54.5777273 30.1207407,53.8113636 L30.1207407,41.0272727 C30.1207407,40.2595455 29.6082222,39.7495455 28.8367037,39.7495455 L24.9818519,39.7495455 L24.9818519,39.7495455 Z M28.8367037,57.6459091 L24.9818519,57.6459091 C22.7988519,57.6459091 21.1283704,55.985 21.1283704,53.8113636 L21.1283704,41.0272727 C21.1283704,38.8536364 22.7988519,37.1913636 24.9818519,37.1913636 L28.8367037,37.1913636 C31.0210741,37.1913636 32.6915556,38.8536364 32.6915556,41.0272727 L32.6915556,53.8113636 C32.6915556,55.985 31.0210741,57.6459091 28.8367037,57.6459091 L28.8367037,57.6459091 Z" id="Fill-4" sketch:type="MSShapeGroup"></path>
                <path d="M46.4377407,57.6459091 L36.545037,57.6459091 L30.636,55.985 L31.2773333,53.555 L37.0589259,55.2172727 L46.4377407,55.2172727 C46.694,55.2172727 46.9516296,54.9622727 47.0804444,54.7059091 L51.7040741,41.0272727 C51.8328889,40.7722727 51.7040741,40.5159091 51.5766296,40.2595455 C51.4478148,40.1327273 51.319,40.0045455 51.0627407,40.0045455 L41.8127407,40.0045455 L42.4540741,38.2140909 C43.0967778,36.425 44.8960741,31.4395455 44.8960741,29.5222727 C44.8960741,29.3940909 44.8960741,29.2659091 44.7672593,29.1377273 C44.3821852,28.7545455 43.4818519,28.6263636 42.8405185,28.4995455 L37.8304444,39.7495455 L31.2773333,41.5386364 L30.636,39.11 L35.9023333,37.5759091 L41.0412222,25.6863636 L41.8127407,25.6863636 C42.069,25.6863636 44.8960741,25.6863636 46.4377407,27.0922727 C47.0804444,27.7318182 47.3367037,28.4995455 47.3367037,29.3940909 C47.3367037,31.3113636 46.1801111,35.0190909 45.409963,37.1913636 L50.9339259,37.1913636 C51.9617037,37.1913636 52.9894815,37.7040909 53.5033704,38.5986364 C54.1460741,39.4931818 54.2748889,40.6440909 54.0172593,41.6668182 L49.3922593,55.3454545 C49.136,56.7513636 47.8505926,57.6459091 46.4377407,57.6459091" id="Fill-5" sketch:type="MSShapeGroup"></path>
            </g>
        </g>
    </g>
</svg>