<?xml version="1.0" encoding="UTF-8" standalone="no"?>
<svg width="200px" height="200px" viewBox="0 0 200 200" version="1.1" xmlns="http://www.w3.org/2000/svg" xmlns:xlink="http://www.w3.org/1999/xlink" xmlns:sketch="http://www.bohemiancoding.com/sketch/ns">
    <!-- Generator: Sketch 3.4.4 (17249) - http://www.bohemiancoding.com/sketch -->
    <title>earn_money@2x</title>
    <desc>Created with Sketch.</desc>
    <defs>
        <path id="path-1" d="M0,0.0341666667 L197.440138,0.0341666667 L197.440138,40.918 L0,40.918 L0,0.0341666667 Z"></path>
    </defs>
    <g id="Page-1" stroke="none" stroke-width="1" fill="none" fill-rule="evenodd" sketch:type="MSPage">
        <g id="earn_money" sketch:type="MSArtboardGroup">
            <g sketch:type="MSLayerGroup" transform="translate(1.000000, 79.000000)">
                <g id="Group-4">
                    <mask id="mask-2" sketch:name="Clip 2" fill="white">
                        <use xlink:href="#path-1"></use>
                    </mask>
                    <g id="Clip-2"></g>
                    <path d="M181.108552,36.2166667 C178.739379,35.9638333 176.441214,35.4349333 174.215421,34.6381667 C171.989628,33.8400333 169.965931,32.7877 168.138869,31.4798 L172.462097,25.1125 C173.999669,26.1976333 175.496276,27.06 176.951917,27.6982333 C178.408924,28.3364667 179.889145,28.7833667 181.39531,29.0389333 L181.39531,23.2934667 C179.472662,22.8465667 177.784883,22.3354333 176.327876,21.7628 C174.870869,21.1874333 173.655559,20.4931667 172.677848,19.68 C171.698772,18.8654667 170.962759,17.9183667 170.467076,16.8318667 C169.970028,15.7467333 169.722869,14.4552333 169.722869,12.9546333 L169.722869,12.8589667 C169.722869,11.4554 169.978221,10.1652667 170.491655,8.9831 C171.002359,7.80366667 171.747931,6.7732 172.725641,5.8958 C173.701986,5.0184 174.902276,4.3091 176.327876,3.76653333 C177.753476,3.2226 179.377076,2.88913333 181.204138,2.76203333 L181.204138,0.0341666667 L186.200566,0.0341666667 L186.200566,2.90416667 C188.186028,3.1283 190.010359,3.5588 191.674924,4.19566667 C193.336759,4.8339 194.892083,5.64706667 196.332703,6.63653333 L192.395917,13.0516667 C191.403186,12.3505667 190.354469,11.7615333 189.249766,11.2804667 C188.143697,10.8035 187.048552,10.4358667 185.960234,10.1803 L185.960234,15.7303333 C187.881517,16.1786 189.554276,16.6952 190.979876,17.2869667 C192.40411,17.8787333 193.598938,18.5784667 194.557531,19.3943667 C195.518855,20.2089 196.237117,21.1737667 196.719145,22.2889667 C197.201172,23.4082667 197.440138,24.6984 197.440138,26.1662 L197.440138,26.2605 C197.440138,27.7269333 197.167034,29.0457667 196.623559,30.2074333 C196.078717,31.3718333 195.309931,32.3859 194.3172,33.2469 C193.325834,34.1065333 192.132372,34.7939667 190.74091,35.3051 C189.346717,35.8162333 187.800952,36.1510667 186.103614,36.3082333 L186.103614,41 L181.108552,41 L181.108552,36.2166667 L181.108552,36.2166667 Z M181.445834,9.74843333 C180.2592,9.8441 179.422138,10.1065 178.92509,10.5383667 C178.429407,10.9688667 178.179517,11.5032333 178.179517,12.1414667 L178.179517,12.2357667 C178.179517,12.874 178.396634,13.3933333 178.826772,13.7910333 C179.259641,14.1901 180.132207,14.5659333 181.445834,14.9158 L181.445834,9.74843333 L181.445834,9.74843333 Z M185.913807,29.3259333 C188.057669,29.1018 189.130966,28.29 189.130966,26.8850667 L189.130966,26.7894 C189.130966,26.1511667 188.907021,25.625 188.459131,25.2109 C188.00851,24.7968 187.163255,24.4141333 185.913807,24.0601667 L185.913807,29.3259333 L185.913807,29.3259333 Z" id="Fill-1" fill="#D0E8F6" sketch:type="MSShapeGroup" mask="url(#mask-2)"></path>
                    <path d="M116.217807,25.4063333 C116.217807,25.8190667 116.101738,26.0336333 115.970648,26.0172333 C115.838193,26.0008333 115.558262,25.7698667 115.427172,25.6537 C115.294717,25.5389 115.113103,25.2915333 114.915103,24.8911 C114.718469,24.4920333 114.173628,22.1577667 114.124469,21.6958333 C114.07531,21.2339 114.108083,20.4740333 114.124469,20.3920333 C114.140855,20.3100333 114.635172,19.9957 114.635172,19.9957 C114.849559,19.8535667 115.772648,22.058 116.052579,22.8834667 C116.33251,23.7075667 116.217807,24.9936 116.217807,25.4063333 L116.217807,25.4063333 Z M113.7312,24.7804 C113.500428,24.9116 113.302428,24.9444 112.973338,24.7804 C112.642883,24.6150333 110.369297,23.5258 110.038841,23.4602 C109.709752,23.3946 109.231821,23.2948333 108.992855,23.1636333 C108.75389,23.0310667 105.919076,21.6452667 103.974579,19.4189667 C103.974579,19.4189667 104.567214,18.8258333 106.199007,18.8080667 C107.8308,18.7916667 109.033821,19.2208 110.022455,19.7989 C111.01109,20.3756333 112.248248,21.1341333 112.544566,21.4143 C112.840883,21.6958333 113.40211,22.5199333 113.582359,23.0146667 C113.763972,23.5094 114.011131,23.9549333 114.011131,24.1367 C114.011131,24.3184667 113.961972,24.6478333 113.7312,24.7804 L113.7312,24.7804 Z M80.6706621,13.8689333 C80.2965103,13.9044667 79.7257241,13.9222333 79.2614483,13.8689333 C78.7971724,13.8142667 77.9587448,13.4165667 77.2445793,13.1268333 C76.5317793,12.8371 75.6564828,12.2412333 74.8358069,11.7711 C74.015131,11.3009667 71.0888276,9.2209 69.6604966,8.38996667 C68.233531,7.55766667 63.8966483,5.1168 63.7177655,5.0266 C63.5402483,4.9364 63.7723862,4.84483333 64.1997931,4.82706667 C64.6285655,4.8093 66.3955448,5.0266 66.3955448,5.0266 C69.8748828,6.23746667 81.7780966,13.7965 81.7780966,13.7965 C81.7780966,13.7965 81.0461793,13.8320333 80.6706621,13.8689333 L80.6706621,13.8689333 Z M69.9158483,11.5688333 C69.6741517,11.6658667 68.7333103,11.9556 68.6131448,12.3656 C68.4929793,12.7756 68.2034897,13.7172333 68.2267034,13.8867 C68.2512828,14.0548 68.2267034,14.2488667 68.2267034,14.2488667 C68.2267034,14.2488667 55.3293931,12.7523667 51.9770483,12.7031667 L50.6661517,4.33916667 C50.6661517,4.33916667 52.4030897,4.39793333 53.7303724,4.47036667 C55.0562897,4.5428 57.2042483,4.7601 58.6025379,5.07443333 C60.0021931,5.38876667 60.9430345,5.60606667 61.6176,5.8712 C62.293531,6.13633333 63.3791172,6.59553333 64.2708,7.05473333 C65.1638483,7.51256667 66.9731586,8.52663333 67.792469,9.0815 C68.6131448,9.63773333 71.2663448,11.4485667 71.2663448,11.4485667 C71.2663448,11.4485667 70.1575448,11.4718 69.9158483,11.5688333 L69.9158483,11.5688333 Z M47.3861793,12.7031667 L32.9608552,12.2207333 L33.1056,6.18553333 C33.1056,6.18553333 34.5298345,5.53363333 35.5662621,5.26713333 C36.6040552,5.002 38.3642069,4.71226667 39.3050483,4.63983333 C40.2458897,4.5674 42.8512966,4.3747 44.1062069,4.3501 C45.3597517,4.3255 47.5063448,4.3501 47.5063448,4.3501 L47.3861793,12.7031667 L47.3861793,12.7031667 Z M32.1770483,12.2658333 L24.8087172,12.2658333 C24.8087172,12.2658333 26.6658207,10.0368 28.0886897,9.07193333 C29.5115586,8.1057 31.8452276,6.68026667 32.0623448,6.56 C32.2794621,6.43973333 32.4214759,6.41376667 32.4214759,6.41376667 C32.4214759,6.41376667 32.2139172,8.44326667 32.1770483,12.2658333 L32.1770483,12.2658333 Z M8.89634483,17.2951667 C8.51536552,17.6587 7.20856552,18.8395 6.95457931,19.0021333 C6.7005931,19.1661333 6.46435862,19.4025667 6.06562759,19.475 C5.66553103,19.5474333 4.3956,19.5829667 3.8330069,19.5829667 C3.27041379,19.5829667 2.63544828,19.7114333 2.59857931,19.5829667 C2.56171034,19.4558667 2.59857931,17.2582667 3.99550345,15.2233 C3.99550345,15.2233 6.0110069,15.0429 6.8822069,15.1331 C7.7534069,15.2233 8.1890069,15.2233 8.60548966,15.5513 C9.02333793,15.8779333 9.27732414,16.1690333 9.34969655,16.3863333 C9.42343448,16.605 9.27732414,16.9316333 8.89634483,17.2951667 L8.89634483,17.2951667 Z M116.92651,26.7156 C116.940166,26.5543333 116.856869,25.9092667 116.856869,25.0400667 C116.856869,24.1708667 116.712124,22.6866667 116.602883,22.3600333 C116.495007,22.0347667 116.168648,21.3104333 115.735779,20.5136667 C115.301545,19.7169 115.047559,19.4627 113.817228,18.7752667 C112.586897,18.0864667 110.235476,17.4714667 104.627297,16.1321333 C99.0191172,14.7914333 84.7631172,13.6694 84.7631172,13.6694 L82.6766069,13.7172333 C82.6766069,13.7172333 80.6501793,12.3902 80.0957793,12.0280333 C79.5400138,11.6658667 71.1461793,6.90986667 68.9026345,5.6785 C66.6590897,4.44713333 64.1506345,4.01253333 63.2343724,3.84306667 C62.3181103,3.67496667 61.6667586,3.62576667 53.6812138,2.95063333 C45.6970345,2.27413333 37.0656,3.20346667 36.2244414,3.29366667 C35.3819172,3.38523333 32.9485655,3.7105 32.9485655,3.7105 C32.9485655,3.7105 32.6686345,3.22123333 32.5785103,3.11326667 C32.4883862,3.00393333 32.1797793,3.11326667 32.1797793,3.11326667 C32.1538345,3.91003333 31.9968,3.86766667 31.8520552,3.9155 C31.7073103,3.96333333 30.8866345,4.1082 28.8602069,4.68766667 C26.8337793,5.26713333 25.9175172,5.8958 24.277531,6.62013333 C22.6375448,7.34446667 16.3657241,10.6272 15.2555586,11.2066667 C14.1467586,11.7861333 13.6155724,11.7861333 12.3606621,11.9788333 C11.1071172,12.1729 8.11526897,12.5583 6.23495172,12.8002 C4.35326897,13.0421 4.20852414,13.9113 3.82208276,14.5386 C3.43564138,15.1659 3.38784828,15.4078 3.00277241,15.8916 C2.61633103,16.3740333 2.32684138,18.0167667 1.98955862,19.7073333 C1.65091034,21.3965333 1.21667586,22.0744 0.782441379,22.509 C0.348206897,22.9436 0.107875862,23.6242 0.0109241379,23.8661 C-0.0860275862,24.108 0.492951724,27.3511 0.589903448,28.0276 C0.686855172,28.7041 0.879393103,28.5291667 1.45837241,29.3013333 C2.03735172,30.0735 3.24310345,30.9509 3.24310345,30.9509 L13.5186207,33.5065667 L14.570069,33.5065667 C14.3352,33.5065667 14.2068414,31.3595333 14.2068414,30.4862333 C14.2068414,25.5648667 18.2078069,21.3090667 23.1250345,21.3090667 C28.0422621,21.3090667 32.0418621,25.1863 32.0418621,30.1076667 C32.0418621,31.5016667 31.7209655,32.7576333 31.1501793,33.9329667 L31.8520552,33.9644 L48.4471862,34.1748667 C48.4471862,34.1748667 78.2618897,35.1506667 81.8313517,35.1506667 C85.1236138,35.1506667 87.671669,34.932 88.0499172,34.8992 C87.117269,33.4888 86.5724276,31.7982333 86.5724276,29.9833 C86.5724276,25.0619333 90.5720276,21.0576 95.4906207,21.0576 C100.407848,21.0576 104.407448,25.0605667 104.407448,29.9833 C104.407448,32.1112 103.659145,34.6764333 102.411062,36.2112 L104.12069,36.9054667 L106.254993,36.9054667 C106.254993,36.9054667 107.015586,35.8613333 107.340579,35.7533667 C107.666938,35.6440333 109.547255,35.3392667 109.547255,35.3392667 C109.547255,35.3392667 115.44629,33.9193 115.771283,33.7744333 C116.096276,33.6295667 116.53051,33.415 116.602883,33.0897333 C116.675255,32.7631 116.714855,31.529 116.714855,31.529 L116.324317,31.0042 L116.363917,30.0776 L116.772207,29.7906 C116.772207,29.7906 116.881448,28.2585667 116.921048,28.0426333 C116.956552,27.8499333 116.874621,27.3565667 116.92651,26.7156 L116.92651,26.7156 Z" id="Fill-3" fill="#D0E8F6" sketch:type="MSShapeGroup" mask="url(#mask-2)"></path>
                </g>
                <path d="M28.5338483,31.8474333 C28.1119034,32.7207333 27.875669,33.2277667 27.1328276,33.9083667 C27.1328276,33.9083667 26.5538483,33.4573667 26.1141517,32.8382667 C25.6744552,32.2205333 25.3672138,31.816 25.1746759,31.4401667 C24.9821379,31.0643333 24.8688,30.8415667 24.9138621,30.6065 C24.9602897,30.3700667 25.0094483,30.0858 25.2852828,29.9600667 C25.5611172,29.8343333 25.8192,29.6484667 26.450069,29.5842333 C27.0795724,29.5213667 27.9139034,29.3327667 28.2006621,29.3314 C28.4887862,29.3300333 28.8615724,29.3683 28.9039034,29.4831 C28.944869,29.5992667 28.9557931,30.9741333 28.5338483,31.8474333 M25.6648966,35.3406333 C25.5734069,35.4226333 24.3062069,35.9556333 23.3394207,35.8955 C22.371269,35.8367333 21.8141379,35.8107667 20.9019724,35.3802667 C20.9019724,35.3802667 21.0999724,34.6723333 21.5041655,34.0313667 C21.9083586,33.3904 22.1650759,32.9503333 22.4395448,32.6305333 C22.7140138,32.3107333 22.8765103,32.1194 23.1127448,32.0729333 C23.3476138,32.0264667 23.6289103,31.9622333 23.8501241,32.1699667 C24.0713379,32.3777 24.3417103,32.5471667 24.6393931,33.1061333 C24.9370759,33.6651 25.4272966,34.3662 25.5379034,34.6313333 C25.6485103,34.8978333 25.7550207,35.2572667 25.6648966,35.3406333 M20.5455724,32.3380667 C20.079931,32.7672 19.5282621,33.4204667 19.2988552,33.5940333 C19.0694483,33.7689667 18.7499172,33.9630333 18.6461379,33.8960667 C18.5437241,33.8291 17.7080276,32.7371333 17.5209517,31.7859333 C17.3325103,30.8333667 17.2164414,30.2867 17.4007862,29.2958667 C17.4007862,29.2958667 18.1354345,29.3068 18.8577931,29.5364 C19.5801517,29.766 20.0703724,29.9040333 20.4486207,30.0871667 C20.8282345,30.2716667 21.0535448,30.3823667 21.1586897,30.5969333 C21.262469,30.8128667 21.3949241,31.0698 21.2501793,31.3363 C21.1054345,31.6028 21.0112138,31.9075667 20.5455724,32.3380667 M22.1432276,30.1691667 C22.1432276,30.3113 22.0285241,30.4261 21.8865103,30.4261 C21.7458621,30.4261 21.6311586,30.3113 21.6311586,30.1691667 C21.6311586,30.0270333 21.7458621,29.9122333 21.8865103,29.9122333 C22.0285241,29.9122333 22.1432276,30.0270333 22.1432276,30.1691667 M19.757669,24.8583 C20.594731,24.3690333 21.0740276,24.0806667 22.0694897,23.9303333 C22.0694897,23.9303333 22.2988966,24.6287 22.3193793,25.3858333 C22.3384966,26.1443333 22.3685379,26.6527333 22.3193793,27.0723 C22.2688552,27.4905 22.2388138,27.7406 22.0694897,27.9100667 C21.9001655,28.0795333 21.7008,28.2886333 21.4017517,28.2380667 C21.1027034,28.1888667 20.7845379,28.1984333 20.2260414,27.8991333 C19.6689103,27.5998333 18.8714483,27.2909667 18.6324828,27.1310667 C18.3935172,26.9725333 18.1040276,26.7333667 18.134069,26.6131 C18.1641103,26.4928333 18.9206069,25.3462 19.757669,24.8583 M22.7809241,28.5742667 C22.7809241,28.7150333 22.6662207,28.8298333 22.5242069,28.8298333 C22.3835586,28.8298333 22.2688552,28.7150333 22.2688552,28.5742667 C22.2688552,28.4321333 22.3835586,28.3173333 22.5242069,28.3173333 C22.6662207,28.3173333 22.7809241,28.4321333 22.7809241,28.5742667 M23.1619034,31.1900667 C23.3039172,31.1900667 23.4186207,31.3048667 23.4186207,31.4456333 C23.4186207,31.5877667 23.3039172,31.7025667 23.1619034,31.7025667 C23.0212552,31.7025667 22.9065517,31.5877667 22.9065517,31.4456333 C22.9065517,31.3048667 23.0212552,31.1900667 23.1619034,31.1900667 M24.119131,29.1496333 C23.9771172,29.1496333 23.8624138,29.0348333 23.8624138,28.8927 C23.8624138,28.7505667 23.9771172,28.6357667 24.119131,28.6357667 C24.2597793,28.6357667 24.3744828,28.7505667 24.3744828,28.8927 C24.3744828,29.0348333 24.2597793,29.1496333 24.119131,29.1496333 M24.4372966,30.2320333 C24.5793103,30.2320333 24.6940138,30.3468333 24.6940138,30.4889667 C24.6940138,30.6297333 24.5793103,30.7445333 24.4372966,30.7445333 C24.2966483,30.7445333 24.1819448,30.6297333 24.1819448,30.4889667 C24.1819448,30.3468333 24.2966483,30.2320333 24.4372966,30.2320333 M23.8555862,26.3712 C23.9866759,25.7521 24.0617793,24.8993 24.1478069,24.6246 C24.2338345,24.3499 24.3826759,24.0055 24.5055724,24.0014 C24.628469,23.9959333 25.940731,24.4032 26.6439724,25.0715 C27.3458483,25.7398 27.756869,26.1183667 28.1788138,27.0340333 C28.1788138,27.0340333 27.5738897,27.4495 26.851531,27.6804667 C26.1305379,27.9114333 25.6512414,28.0822667 25.2347586,28.1506 C24.8196414,28.2203 24.5724828,28.2613 24.3621931,28.1465 C24.1519034,28.0303333 23.8951862,27.8977667 23.8596828,27.5957333 C23.8241793,27.2950667 23.7244966,26.9916667 23.8555862,26.3712 M23.1250345,21.6370667 C18.5273379,21.6370667 14.7858207,25.3803667 14.7858207,29.9833 C14.7858207,30.8607 14.9223724,31.7053 15.1749931,32.5007 C16.2441931,35.8763667 19.404,38.3281667 23.1250345,38.3281667 C26.3435586,38.3281667 29.1387724,36.4941 30.528869,33.8154333 C31.1242345,32.6674333 31.4642483,31.365 31.4642483,29.9833 C31.4642483,25.3817333 27.722731,21.6370667 23.1250345,21.6370667" id="Fill-5" fill="#D0E8F6" sketch:type="MSShapeGroup"></path>
                <path d="M100.899434,31.8474333 C100.47749,32.7207333 100.23989,33.2277667 99.4984138,33.9083667 C99.4984138,33.9083667 98.9167034,33.4573667 98.4797379,32.8382667 C98.0400414,32.2205333 97.7328,31.816 97.5402621,31.4401667 C97.3477241,31.0643333 97.2330207,30.8415667 97.2794483,30.6065 C97.3245103,30.3700667 97.3750345,30.0858 97.650869,29.9600667 C97.9267034,29.8343333 98.1847862,29.6484667 98.8156552,29.5842333 C99.4451586,29.5213667 100.27949,29.3327667 100.564883,29.3314 C100.854372,29.3300333 101.227159,29.3683 101.26949,29.4831 C101.310455,29.5992667 101.320014,30.9741333 100.899434,31.8474333 M98.0291172,35.3406333 C97.9389931,35.4226333 96.6704276,35.9556333 95.7050069,35.8955 C94.7368552,35.8367333 94.1783586,35.8107667 93.2675586,35.3802667 C93.2675586,35.3802667 93.4641931,34.6723333 93.8697517,34.0313667 C94.2725793,33.3904 94.5306621,32.9503333 94.805131,32.6305333 C95.0796,32.3107333 95.240731,32.1194 95.4769655,32.0729333 C95.7132,32.0264667 95.9944966,31.9622333 96.2143448,32.1699667 C96.4355586,32.3777 96.705931,32.5471667 97.0049793,33.1061333 C97.3026621,33.6651 97.7915172,34.3662 97.9034897,34.6313333 C98.0140966,34.8978333 98.1206069,35.2572667 98.0291172,35.3406333 M92.9111586,32.3380667 C92.4455172,32.7672 91.8938483,33.4204667 91.6644414,33.5940333 C91.4350345,33.7689667 91.1155034,33.9630333 91.0103586,33.8960667 C90.9079448,33.8291 90.0736138,32.7371333 89.8865379,31.7859333 C89.6980966,30.8333667 89.5820276,30.2867 89.7663724,29.2958667 C89.7663724,29.2958667 90.5010207,29.3068 91.2233793,29.5364 C91.9457379,29.766 92.4345931,29.9040333 92.8128414,30.0871667 C93.1924552,30.2716667 93.419131,30.3823667 93.5242759,30.5969333 C93.6280552,30.8128667 93.7605103,31.0698 93.6157655,31.3363 C93.4710207,31.6028 93.3768,31.9075667 92.9111586,32.3380667 M94.5088138,30.1691667 C94.5088138,30.3113 94.3941103,30.4261 94.2520966,30.4261 C94.1100828,30.4261 93.9953793,30.3113 93.9953793,30.1691667 C93.9953793,30.0270333 94.1100828,29.9122333 94.2520966,29.9122333 C94.3941103,29.9122333 94.5088138,30.0270333 94.5088138,30.1691667 M92.1232552,24.8583 C92.9603172,24.3690333 93.4368828,24.0806667 94.4350759,23.9303333 C94.4350759,23.9303333 94.6631172,24.6287 94.6836,25.3858333 C94.7040828,26.1443333 94.7341241,26.6527333 94.6836,27.0723 C94.6344414,27.4905 94.6044,27.7406 94.4350759,27.9100667 C94.2657517,28.0795333 94.0663862,28.2886333 93.7659724,28.2380667 C93.4682897,28.1888667 93.1501241,28.1984333 92.5916276,27.8991333 C92.0344966,27.5998333 91.235669,27.2909667 90.998069,27.1310667 C90.7577379,26.9725333 90.4696138,26.7333667 90.4982897,26.6131 C90.5296966,26.4928333 91.2861931,25.3462 92.1232552,24.8583 M95.1465103,28.5742667 C95.1465103,28.7150333 95.0318069,28.8298333 94.8897931,28.8298333 C94.7477793,28.8298333 94.6330759,28.7150333 94.6330759,28.5742667 C94.6330759,28.4321333 94.7477793,28.3173333 94.8897931,28.3173333 C95.0318069,28.3173333 95.1465103,28.4321333 95.1465103,28.5742667 M95.5274897,31.1900667 C95.6695034,31.1900667 95.7842069,31.3048667 95.7842069,31.4456333 C95.7842069,31.5877667 95.6695034,31.7025667 95.5274897,31.7025667 C95.3868414,31.7025667 95.2721379,31.5877667 95.2721379,31.4456333 C95.2721379,31.3048667 95.3868414,31.1900667 95.5274897,31.1900667 M96.4847172,29.1496333 C96.3413379,29.1496333 96.228,29.0348333 96.228,28.8927 C96.228,28.7505667 96.3413379,28.6357667 96.4847172,28.6357667 C96.6253655,28.6357667 96.740069,28.7505667 96.740069,28.8927 C96.740069,29.0348333 96.6253655,29.1496333 96.4847172,29.1496333 M96.8028828,30.2320333 C96.9448966,30.2320333 97.0596,30.3468333 97.0596,30.4889667 C97.0596,30.6297333 96.9448966,30.7445333 96.8028828,30.7445333 C96.6622345,30.7445333 96.547531,30.6297333 96.547531,30.4889667 C96.547531,30.3468333 96.6622345,30.2320333 96.8028828,30.2320333 M96.2198069,26.3712 C96.3522621,25.7521 96.426,24.8993 96.5133931,24.6246 C96.5994207,24.3499 96.7468966,24.0055 96.8711586,24.0014 C96.9940552,23.9959333 98.3063172,24.4032 99.0095586,25.0715 C99.7114345,25.7398 100.122455,26.1183667 100.5444,27.0340333 C100.5444,27.0340333 99.9394759,27.4495 99.2157517,27.6804667 C98.4961241,27.9114333 98.0168276,28.0822667 97.6003448,28.1506 C97.1852276,28.2203 96.9367034,28.2613 96.7264138,28.1465 C96.5174897,28.0303333 96.2607724,27.8977667 96.225269,27.5957333 C96.1897655,27.2950667 96.0900828,26.9916667 96.2198069,26.3712 M95.4906207,21.6370667 C90.8915586,21.6370667 87.1514069,25.3803667 87.1514069,29.9833 C87.1514069,31.8310333 87.756331,33.5393667 88.7750069,34.9238 C90.2934621,36.9874667 92.7391034,38.3281667 95.4906207,38.3281667 C97.9444552,38.3281667 100.155228,37.2608 101.681876,35.5661333 C103.015986,34.0860333 103.829834,32.1276 103.829834,29.9833 C103.829834,25.3817333 100.088317,21.6370667 95.4906207,21.6370667" id="Fill-6" fill="#D0E8F6" sketch:type="MSShapeGroup"></path>
                <path d="M145.135366,10.4987333 L155.139145,20.5246 L145.135366,30.5491 L138.5208,30.5491 L146.13629,22.9272 L131.172952,22.9272 L131.172952,18.0687 L146.083034,18.0687 L138.507145,10.4850667 L145.135366,10.4987333" id="Fill-7" fill="#D0E8F6" sketch:type="MSShapeGroup"></path>
            </g>
        </g>
    </g>
</svg>