<?xml version="1.0" encoding="UTF-8" standalone="no"?>
<svg width="200px" height="200px" viewBox="0 0 200 200" version="1.1" xmlns="http://www.w3.org/2000/svg" xmlns:xlink="http://www.w3.org/1999/xlink" xmlns:sketch="http://www.bohemiancoding.com/sketch/ns">
    <!-- Generator: Sketch 3.4.4 (17249) - http://www.bohemiancoding.com/sketch -->
    <title>globe@2x</title>
    <desc>Created with Sketch.</desc>
    <defs></defs>
    <g id="Page-1" stroke="none" stroke-width="1" fill="none" fill-rule="evenodd" sketch:type="MSPage">
        <g id="globe" sketch:type="MSArtboardGroup" fill="#D0E8F6">
            <path d="M130.777464,86.995758 L130.527297,86.5762407 L130.361397,86.5762407 L130.279764,86.2390338 L130.195497,86.071758 L130.111231,85.8221717 L130.111231,85.7372062 L130.111231,85.9894476 L130.195497,86.4089649 L130.195497,86.8258269 C130.111231,86.6585511 129.945331,86.5762407 129.863697,86.4089649 L129.363364,85.5699304 L129.363364,85.6522407 L129.697797,86.2390338 C130.111231,86.9107924 130.527297,87.5825511 130.943364,88.33662 L131.359431,88.9234131 L131.359431,89.0057235 L131.443697,89.4252407 L131.859764,89.9297235 L131.941397,90.0120338 L132.191564,90.5988269 L132.191564,90.6837924 C132.273197,91.1033097 132.441731,91.6051373 132.607631,92.0246545 C132.689264,92.10962 132.773531,92.2768959 132.939431,92.3592062 L133.189597,93.0309649 L133.355497,93.617758 L133.521397,93.8699993 L133.937464,94.3718269 C134.103364,94.6240683 134.187631,94.95862 134.353531,95.2108614 L134.435164,95.3781373 L134.519431,95.5454131 L134.519431,95.7976545 L134.435164,95.9649304 C134.519431,96.0472407 134.519431,96.1322062 134.601064,96.2171717 L134.685331,96.466758 L134.769597,96.7189993 L134.851231,96.7189993 L135.017131,96.466758 L135.183031,96.2994821 L135.267297,96.0472407 L135.351564,95.9649304 L135.351564,95.7976545 L135.433197,95.712689 L135.517464,95.6303786 L135.599097,95.5454131 L135.599097,95.2931717 C135.517464,94.6240683 135.517464,93.9523097 135.351564,93.2832062 L135.183031,93.7000683 L135.101397,94.2045511 L135.017131,94.2868614 L134.935497,94.2868614 L134.851231,94.6240683 L134.769597,94.7913442 L134.769597,95.6303786 L134.685331,95.6303786 L134.601064,95.712689 L134.435164,95.712689 L134.353531,95.3781373 L134.353531,95.0435855 L134.269264,94.8736545 L134.187631,94.4567924 L134.019097,93.9523097 L134.019097,93.7850338 L133.937464,93.3655166 L133.937464,93.1132752 L133.853197,92.9459993 L133.771564,92.6964131 L133.605664,92.5264821 L133.437131,92.0246545 L133.271231,91.5201717 L133.023697,91.1033097 L132.939431,91.0183442 L132.689264,90.4315511 L132.523364,90.0120338 L132.441731,89.6774821 L132.107297,89.0057235 L131.941397,88.7561373 L131.775497,88.6711717 L131.609597,88.33662 L131.609597,88.1693442 L131.443697,87.9994131 L131.359431,87.9171028 L131.109264,87.4975855 L130.777464,86.995758 L130.777464,86.995758 Z M127.867631,76.0962752 L128.033531,76.4308269 L127.951897,76.5157924 L128.199431,77.1025855 L128.615497,77.5221028 L128.865664,77.8566545 C129.197464,78.2761717 129.529264,78.6107235 129.863697,79.0302407 L129.945331,79.0302407 L130.029597,79.1152062 L129.945331,79.1975166 C130.029597,79.3647924 130.195497,79.6170338 130.279764,79.7843097 L130.279764,79.9515855 C130.361397,80.2038269 130.527297,80.3711028 130.695831,80.6233442 L130.861731,80.7083097 L131.109264,80.9578959 L131.193531,80.9578959 C130.611564,79.8692752 129.945331,78.695689 129.197464,77.6893786 L129.115831,77.6893786 L128.781397,77.2698614 L128.615497,77.1848959 L128.533864,77.01762 L128.615497,77.01762 L128.365331,76.6830683 C128.199431,76.4308269 127.951897,76.1812407 127.783364,75.8440338 L127.701731,75.8440338 L127.783364,76.0962752 L127.867631,76.0962752 L127.867631,76.0962752 Z M103.672564,69.8088269 C103.174864,69.9761028 102.758797,70.0610683 102.258464,70.2283442 C101.676497,70.1433786 101.178797,70.1433786 100.596831,70.0610683 L100.928631,69.8937924 L100.099131,69.7238614 L100.762731,69.6415511 L100.762731,69.5565855 L99.9305972,69.4742752 L100.180764,69.2220338 L100.762731,69.1370683 L101.428964,69.3893097 L101.926664,69.1370683 L102.426997,69.2220338 L103.008964,68.9697924 L103.590931,68.9697924 L103.590931,69.2220338 L104.088631,69.4742752 L103.672564,69.8088269 L103.672564,69.8088269 Z M98.6850305,68.300689 L97.6027305,68.4679649 L97.1892972,68.4679649 L96.7732305,68.6352407 L96.1912639,69.054758 L95.3591305,69.3069993 L95.1089639,69.3069993 C94.7771639,69.3893097 94.3610972,69.3893097 94.0292972,69.4742752 L93.6132305,69.7238614 L93.5289639,69.9761028 L93.2814305,70.2283442 L92.5309305,70.5628959 L92.6151972,70.8974476 C92.4492972,71.149689 92.1991305,71.4019304 92.0332305,71.6541717 L91.4512639,71.6541717 L90.9535639,71.3169649 L90.1214305,71.3169649 L89.7869972,71.0673786 L89.7053639,70.6478614 L89.5394639,70.1433786 L89.4551972,69.8937924 L89.5394639,69.5565855 L89.2050305,69.1370683 L89.4551972,68.8874821 L89.2892972,68.7202062 L89.8712639,68.300689 L90.4532305,68.2157235 L90.8692972,67.7962062 C90.6191305,67.8811717 90.4532305,67.8811717 90.2030639,67.9634821 L89.8712639,68.0484476 L89.5394639,67.8811717 L89.7053639,67.6289304 L89.9555305,67.4616545 L90.2030639,67.4616545 L90.7850305,67.54662 C90.6191305,67.4616545 90.3715972,67.2943786 90.2030639,67.2094131 L89.8712639,67.2094131 L89.7053639,67.1271028 L90.2030639,66.7898959 L90.1214305,66.62262 C90.0371639,66.4553442 90.0371639,66.2031028 89.9555305,66.0358269 L89.8712639,65.8685511 L89.9555305,65.7012752 L89.4551972,65.4490338 C88.8732305,65.3667235 88.2912639,65.3667235 87.7092972,65.3667235 L87.5433972,65.281758 L87.4591305,65.1144821 L88.1253639,65.0295166 L88.6230639,65.0295166 L87.7935639,64.8622407 L87.4591305,64.6949649 L87.6276639,64.6126545 C88.2096305,64.527689 88.8732305,64.527689 89.4551972,64.4427235 L89.6210972,64.3604131 L89.2050305,64.2754476 L89.5394639,64.1931373 L90.4532305,64.0232062 L90.7850305,64.0232062 L90.8692972,63.9408959 C91.4512639,63.8559304 92.1174972,63.8559304 92.6994639,63.9408959 L92.8653639,64.0232062 L93.5289639,63.8559304 L93.9450305,63.9408959 L94.1951972,63.9408959 L94.6112639,64.0232062 L94.1951972,63.8559304 L94.2768305,63.77362 L95.1089639,63.6063442 L95.8568305,63.6063442 L96.1912639,63.5213786 L98.6007639,63.5213786 C99.0168305,63.6063442 99.5987972,63.6886545 100.014864,63.6886545 L99.5987972,63.77362 C98.9351972,63.77362 98.1846972,63.77362 97.5210972,63.8559304 L97.6027305,63.9408959 L98.4348639,63.9408959 L99.1010972,64.0232062 L99.5171639,63.9408959 L99.7646972,64.0232062 L99.5171639,64.1931373 L100.099131,64.1081717 C100.430931,64.1081717 100.846997,64.0232062 101.178797,64.0232062 L101.926664,64.0232062 L102.092564,64.1081717 L101.263064,64.3604131 L101.178797,64.4427235 L100.430931,64.527689 L101.012897,64.527689 L100.596831,64.9472062 L100.681097,65.281758 L101.094531,65.4490338 L100.681097,65.4490338 L100.265031,65.5339993 L100.846997,65.7012752 L101.012897,65.9535166 L100.681097,65.9535166 L101.178797,66.2031028 L100.512564,66.2031028 L100.928631,66.3730338 L100.846997,66.4553442 L100.430931,66.5403097 L100.014864,66.5403097 L100.430931,66.7898959 L100.430931,66.9598269 L99.7646972,66.7898959 L99.5987972,66.8748614 L100.014864,66.9598269 L100.512564,67.1271028 L100.681097,67.376689 L100.099131,67.4616545 C99.8489639,67.376689 99.5987972,67.2094131 99.3486305,67.1271028 L99.5171639,67.376689 L99.1010972,67.54662 L100.512564,67.54662 C99.8489639,67.9634821 99.2669972,68.1334131 98.6850305,68.300689 L98.6850305,68.300689 Z M87.2115972,64.4427235 L87.1273305,64.6126545 L86.7955305,64.6949649 L86.3794639,64.7799304 L86.1292972,64.8622407 L85.7132305,64.9472062 L85.6315972,65.0295166 L85.9633972,65.0295166 L86.0476639,65.1144821 L85.2997972,65.281758 L84.8837305,65.1144821 L84.3017639,65.1144821 L84.1358639,65.0295166 L83.8856972,64.9472062 L84.0515972,64.7799304 L84.4676639,64.7799304 L84.7178305,64.527689 L84.7994639,64.527689 L85.0496305,64.6949649 L85.1312639,64.527689 L84.9653639,64.4427235 L85.2997972,64.3604131 L85.7132305,64.3604131 L85.8817639,64.2754476 L85.8817639,64.1081717 L86.0476639,63.9408959 L86.4637305,64.0232062 L86.5453639,64.0232062 L86.9614305,63.9408959 L86.7112639,63.8559304 L86.2135639,63.77362 L86.1292972,63.6886545 L86.2135639,63.6063442 L86.2135639,63.5213786 L86.2951972,63.4364131 L87.0456972,63.4364131 L87.3774972,63.3541028 L87.5433972,63.3541028 L87.5433972,63.4364131 L87.8751972,63.3541028 L89.4551972,63.3541028 C89.9555305,63.4364131 90.4532305,63.4364131 90.9535639,63.5213786 L91.2010972,63.6063442 L91.1194639,63.6886545 L90.5374972,63.77362 L90.0371639,63.77362 L89.7869972,63.8559304 L90.2030639,63.8559304 C89.8712639,63.9408959 89.4551972,64.0232062 89.1233972,64.0232062 L88.4571639,64.1931373 L88.0410972,64.1931373 L87.8751972,64.2754476 L87.2932305,64.2754476 L87.4591305,64.3604131 L87.2115972,64.4427235 L87.2115972,64.4427235 Z M86.4637305,68.9697924 L86.4637305,68.9697924 L85.6315972,69.3893097 L85.3814305,69.2220338 L85.2155305,68.8025166 L84.7994639,68.8025166 L84.5492972,69.054758 L84.7178305,69.3069993 L85.0496305,69.4742752 L85.1312639,69.5565855 L84.8837305,70.0610683 L84.5492972,70.3106545 L84.3017639,70.1433786 L83.7197972,69.8088269 L83.8856972,70.1433786 L84.0515972,70.39562 L84.0515972,70.5628959 L83.2194639,70.39562 L82.7217639,70.1433786 L82.4715972,69.8937924 L82.6374972,69.8088269 C82.4715972,69.6415511 82.3056972,69.4742752 82.1397972,69.3893097 L82.0555305,69.4742752 L81.2233972,69.4742752 L81.1417639,69.3069993 L81.5578305,69.054758 L82.6374972,69.054758 L82.6374972,68.8874821 L82.8876639,68.7202062 L83.5512639,68.3829993 L83.6355305,68.2157235 L83.6355305,68.0484476 L83.3853639,67.8811717 L82.9692972,67.7138959 L83.2194639,67.6289304 L83.2194639,67.376689 L83.0535639,67.376689 L82.9692972,67.2094131 L82.7217639,67.2943786 L82.2214305,67.2943786 L81.5578305,67.1271028 L81.2233972,66.9598269 L80.9758639,66.8748614 L80.9758639,66.7075855 L81.3919305,66.5403097 L81.1417639,66.5403097 L81.5578305,66.2031028 L82.1397972,65.9535166 L82.4715972,65.8685511 L83.0535639,65.8685511 L82.6374972,66.0358269 L82.4715972,66.2880683 L82.9692972,66.0358269 L83.6355305,65.9535166 L83.5512639,66.2880683 L83.2194639,66.5403097 L83.8014305,66.4553442 L84.1358639,66.3730338 L84.4676639,66.62262 L84.6335639,66.7898959 L84.4676639,66.9598269 L84.9653639,66.8748614 L84.9653639,67.1271028 L85.4656972,67.2943786 L85.5473305,67.4616545 L85.5473305,67.7962062 L84.8837305,67.9634821 L85.3814305,68.2157235 L85.7974972,68.300689 L85.9633972,68.6352407 L86.4637305,68.7202062 L86.4637305,68.9697924 L86.4637305,68.9697924 Z M86.2135639,77.94162 L85.9633972,77.94162 L85.7132305,77.8566545 L85.9633972,77.4371373 L85.8817639,77.3548269 L85.2155305,77.7743442 L84.9653639,77.7743442 L85.3814305,77.5221028 L84.9653639,77.3548269 L84.4676639,77.3548269 L83.6355305,77.2698614 L83.6355305,77.1025855 L83.9673305,76.9353097 L83.6355305,76.8503442 L84.1358639,76.5981028 L84.8837305,75.8440338 L85.2155305,75.5944476 L85.6315972,75.4245166 L85.7974972,75.4245166 C85.4656972,75.676758 85.2155305,76.0113097 84.8837305,76.2635511 L85.2155305,76.0962752 L85.4656972,76.1812407 L85.2155305,76.3485166 L85.5473305,76.5157924 L85.7974972,76.4308269 L86.2135639,76.5981028 L85.9633972,76.9353097 L86.2951972,76.8503442 L86.2951972,77.1025855 L86.3794639,77.4371373 L86.2135639,77.94162 L86.2135639,77.94162 Z M81.0574972,66.2031028 L80.8915972,66.2031028 L81.2233972,65.8685511 L81.4735639,65.7012752 L81.7237305,65.6163097 L81.9738972,65.5339993 L82.2214305,65.6163097 L82.3873305,65.7012752 L81.8053639,65.9535166 L81.5578305,65.9535166 L81.0574972,66.2031028 L81.0574972,66.2031028 Z M80.5597972,66.2880683 L80.1437305,66.3730338 L80.0594639,66.2880683 L80.1437305,66.1207924 L80.3096305,65.7862407 L80.4755305,65.7012752 L80.6414305,65.7862407 L80.8915972,65.5339993 L81.2233972,65.4490338 L81.2233972,65.5339993 L81.4735639,65.5339993 L81.3919305,65.6163097 L81.0574972,65.7862407 L81.0574972,65.9535166 L80.5597972,66.2880683 L80.5597972,66.2880683 Z M81.8896305,64.9472062 L82.3056972,64.6949649 L82.3873305,64.6949649 L82.7217639,64.6126545 L82.8033972,64.6949649 L82.8876639,64.6949649 L82.7217639,64.8622407 L82.4715972,65.0295166 L82.0555305,65.1994476 L81.8053639,65.1994476 L81.8053639,65.1144821 L82.1397972,64.9472062 L81.8896305,64.9472062 L81.8896305,64.9472062 Z M82.9692972,64.8622407 L82.9692972,64.7799304 L83.2194639,64.6949649 L83.4696305,64.7799304 L83.4696305,64.8622407 L83.7197972,64.8622407 L83.7197972,64.9472062 L83.4696305,65.0295166 L83.5512639,65.1144821 L83.5512639,65.1994476 C83.7197972,65.1994476 83.8014305,65.281758 83.9673305,65.281758 L84.7178305,65.281758 L84.9653639,65.3667235 L85.0496305,65.5339993 L84.8837305,65.6163097 L84.6335639,65.7012752 L83.1378305,65.7012752 L82.9692972,65.6163097 L82.7217639,65.4490338 L82.9692972,65.281758 L83.2194639,65.1144821 L83.2194639,64.9472062 L82.9692972,64.8622407 L82.9692972,64.8622407 Z M83.6355305,64.3604131 L83.8014305,64.2754476 L84.0515972,64.1931373 L84.1358639,64.1931373 L84.0515972,64.2754476 L83.8014305,64.3604131 L83.6355305,64.3604131 L83.6355305,64.3604131 Z M84.3833972,64.1931373 L84.5492972,64.1081717 L84.7994639,64.0232062 L84.5492972,64.0232062 L84.6335639,63.9408959 L84.7994639,63.77362 C84.9653639,63.6886545 85.1312639,63.6886545 85.2997972,63.6063442 L85.4656972,63.6063442 L85.5473305,63.5213786 L85.7974972,63.5213786 L85.7132305,63.77362 L85.7974972,63.8559304 L85.9633972,63.9408959 L85.7974972,64.1081717 L85.7974972,64.1931373 L85.4656972,64.2754476 L84.7994639,64.4427235 L84.5492972,64.4427235 L84.3017639,64.3604131 L84.3833972,64.1931373 L84.3833972,64.1931373 Z M86.2135639,132.263792 L85.8817639,132.178827 L85.8817639,132.263792 L85.7132305,132.348758 L85.3814305,132.263792 L85.2155305,132.178827 L84.8837305,132.096517 C84.5492972,132.011551 84.2174972,131.844275 83.8856972,131.761965 L83.1378305,131.342448 L83.4696305,131.424758 L84.0515972,131.676999 L84.5492972,131.844275 L84.5492972,131.676999 L84.3833972,131.509723 L84.5492972,131.424758 L84.7994639,131.509723 C85.0496305,131.592034 85.2155305,131.761965 85.4656972,131.929241 L86.0476639,132.096517 L86.5453639,132.178827 L86.5453639,132.348758 L86.2135639,132.263792 L86.2135639,132.263792 Z M74.8217639,93.9523097 L74.5742305,93.7850338 L74.1581639,93.7850338 L74.0738972,93.8699993 L73.9079972,93.8699993 L73.8237305,93.7000683 L73.6578305,93.7850338 L73.4102972,94.2045511 L73.3260305,94.1195855 L73.3260305,93.9523097 L72.9942305,93.7850338 L72.7440639,93.7850338 L72.4938972,93.7000683 L72.2463639,93.7850338 L72.0778305,93.617758 L72.1620972,93.4504821 C72.4122639,93.5327924 72.6597972,93.617758 72.9099639,93.617758 L73.0758639,93.4504821 L72.9099639,93.1982407 L72.9099639,92.9459993 L72.6597972,92.863689 L72.8283305,92.6964131 L73.0758639,92.7787235 L73.4919305,92.9459993 L73.5761972,92.863689 L73.9922639,92.863689 L74.2397972,93.0309649 L74.4056972,93.0309649 L74.4899639,93.2832062 L74.7401305,93.2832062 L74.7401305,93.4504821 L74.9876639,93.4504821 L75.2378305,93.7000683 L74.8217639,93.9523097 L74.8217639,93.9523097 Z M71.6643972,92.6114476 L71.3299639,92.5264821 L70.6663639,92.5264821 L70.9981639,92.1919304 L70.8322639,92.0246545 L70.5820972,91.939689 L70.5004639,91.7724131 L70.5004639,91.4378614 L70.2502972,91.4378614 L69.9184972,91.2705855 L69.7499639,91.1033097 L69.2522639,90.9333786 L69.0863639,90.8510683 L69.2522639,90.6837924 L68.8361972,90.5988269 L68.5043972,90.8510683 L68.3384972,90.8510683 L68.2542305,91.0183442 L68.0883305,91.1033097 L67.9224305,91.0183442 L68.1699639,90.8510683 L68.3384972,90.5988269 L68.5043972,90.5165166 L68.7519305,90.4315511 L69.0863639,90.4315511 L69.1679972,90.3465855 L69.5024305,90.4315511 L69.8342305,90.4315511 L70.1660305,90.6837924 L70.2502972,90.9333786 L70.6663639,90.9333786 C70.9138972,91.18562 71.0824305,91.5201717 71.3299639,91.7724131 L71.4958639,91.7724131 L71.7460305,91.939689 L71.6643972,92.10962 L71.9961972,92.1919304 L72.3279972,92.4441717 L72.2463639,92.6114476 L71.9119305,92.6964131 L71.6643972,92.6114476 L71.6643972,92.6114476 Z M80.0594639,69.6415511 L79.7276639,69.4742752 L79.7276639,69.3069993 L79.3115972,69.4742752 L78.7296305,69.6415511 L78.8955305,69.3893097 L78.5637305,69.3893097 L79.0640639,69.3069993 C79.3115972,69.054758 79.5617639,68.8874821 79.8935639,68.6352407 L80.0594639,68.7202062 L79.8935639,68.8874821 L80.0594639,68.8025166 L80.0594639,68.8874821 L80.2279972,69.054758 L80.3938972,69.2220338 L80.2279972,69.3893097 L80.4755305,69.3893097 L80.5597972,69.5565855 L80.0594639,69.6415511 L80.0594639,69.6415511 Z M107.830597,74.0013442 L108.080764,73.7491028 L108.412564,73.7491028 L108.994531,74.0013442 L108.910264,74.3358959 L109.076164,74.6704476 L108.910264,75.0899649 L108.162397,75.4245166 L107.498797,75.3422062 L107.746331,74.8377235 L107.330264,74.3358959 L107.830597,74.0013442 L107.830597,74.0013442 Z M108.578464,72.1559993 L108.910264,72.1559993 L109.410597,72.073689 L109.160431,72.5755166 L109.576497,72.4905511 L110.074197,72.4905511 L110.158464,72.827758 L109.992564,73.2472752 L110.490264,73.2472752 L111.156497,73.8340683 L111.488297,73.9163786 L112.154531,74.5881373 L112.736497,74.6704476 L112.818131,75.0076545 L112.652231,75.1749304 L112.902397,75.4245166 L112.570597,75.676758 L111.988631,75.676758 L111.238131,75.8440338 L110.990597,75.7617235 L110.740431,76.0113097 L110.324364,76.0113097 L110.074197,76.1812407 L109.826664,76.0962752 L110.324364,75.5944476 L110.740431,75.5094821 L109.826664,75.3422062 L109.658131,75.1749304 L110.074197,75.0076545 L109.742397,74.7554131 L109.742397,74.4208614 L110.408631,74.4208614 L110.324364,74.16862 L109.908297,73.9163786 L109.326331,73.8340683 L109.160431,73.7491028 L109.244697,73.4968614 L109.076164,73.4145511 L108.910264,73.6641373 L108.744364,73.2472752 L108.412564,72.9950338 L108.412564,72.4905511 L108.578464,72.1559993 L108.578464,72.1559993 Z M121.049931,81.8818959 C121.300097,81.7969304 121.547631,81.7969304 121.716164,81.7119649 L121.716164,82.1314821 L121.882064,82.298758 L121.882064,82.5509993 L121.465997,82.3837235 L121.215831,82.3837235 L120.633864,82.1314821 L120.552231,81.8818959 L121.049931,81.8818959 L121.049931,81.8818959 Z M135.599097,96.8039649 C135.599097,98.5643442 135.433197,100.239758 135.017131,101.917827 L134.851231,102.50462 C134.519431,103.173723 134.269264,103.845482 134.019097,104.599551 L133.937464,104.851792 L133.853197,105.019068 L133.687297,105.27131 L133.605664,105.520896 L133.521397,105.605861 L133.437131,106.025379 L133.355497,106.274965 L133.271231,106.694482 L133.105331,106.946723 L132.855164,107.700792 L132.773531,108.035344 L132.855164,108.205275 L132.855164,108.372551 L132.689264,108.792068 L132.689264,108.959344 L132.607631,109.20893 L132.607631,109.546137 L132.523364,110.13293 L132.607631,110.215241 L132.607631,110.467482 C132.441731,111.139241 132.191564,111.808344 132.025664,112.480103 L131.859764,112.89962 C131.691231,113.149206 131.609597,113.486413 131.443697,113.735999 L131.193531,114.155517 C130.943364,114.322792 130.777464,114.575034 130.527297,114.74231 L130.029597,115.414068 L129.863697,115.414068 L129.529264,115.833586 L129.363364,116.000861 L129.197464,116.420379 L129.115831,116.839896 L129.031564,117.089482 L128.947297,117.256758 L129.031564,117.256758 L128.781397,117.761241 L128.615497,118.013482 L128.615497,118.095792 L128.449597,118.348034 L128.283697,118.51531 C128.033531,118.682586 127.783364,118.849861 127.535831,119.017137 L127.285664,119.269379 L127.201397,119.52162 L127.285664,119.52162 C127.035497,119.856172 126.787964,120.193379 126.619431,120.610241 L126.453531,120.862482 C126.287631,120.947448 126.205997,121.114723 126.037464,121.197034 C125.705664,121.449275 125.455497,121.783827 125.207964,122.121034 C124.873531,122.37062 124.541731,122.707827 124.209931,122.957413 L123.878131,123.209655 L123.462064,123.461896 L123.127631,123.37693 L123.045997,123.544206 L122.880097,123.461896 L122.711564,123.544206 L122.464031,123.461896 L122.213864,123.544206 L122.129597,123.544206 L121.631897,123.796448 L121.300097,123.881413 L120.965664,124.048689 L120.799764,124.048689 L120.799764,123.881413 L120.718131,123.881413 L120.718131,123.714137 L120.633864,123.881413 L120.633864,123.796448 L120.799764,123.544206 L120.884031,123.209655 L121.049931,123.127344 L121.215831,122.790137 C121.215831,122.28831 121.300097,121.868792 121.300097,121.366965 L121.215831,121.029758 L121.215831,120.695206 L121.381731,120.193379 L121.465997,119.856172 L121.631897,119.102103 L121.882064,118.51531 L121.963697,118.263068 L121.882064,118.095792 L121.797797,117.676275 L121.797797,116.75493 L121.465997,116.000861 L121.547631,115.581344 L121.631897,115.246792 L121.797797,114.74231 L122.129597,114.240482 L122.213864,113.988241 L122.464031,113.486413 L122.629931,113.234172 L122.961731,112.814655 L123.127631,112.562413 L123.293531,112.145551 L123.377797,111.808344 L123.293531,111.641068 C123.293531,111.388827 123.211897,111.139241 123.211897,110.96931 L123.293531,110.802034 L123.462064,110.552448 C123.462064,110.215241 123.377797,109.880689 123.377797,109.628448 L123.211897,109.293896 L123.293531,109.20893 C123.211897,109.041655 123.211897,108.792068 123.211897,108.539827 L122.880097,107.953034 L122.464031,107.366241 L122.213864,106.861758 L121.963697,106.274965 L121.963697,106.025379 L122.129597,105.858103 C122.213864,105.520896 122.298131,105.27131 122.464031,104.934103 L122.379764,104.851792 L122.629931,104.095068 L122.711564,103.593241 L122.298131,103.006448 L122.047964,102.921482 L121.963697,102.671896 L121.797797,102.58693 L121.797797,102.419655 L121.215831,102.671896 L121.049931,102.671896 L120.884031,102.839172 L120.467964,102.839172 L120.136164,102.419655 L119.970264,102.000137 L119.554197,101.58062 C119.219764,101.58062 118.887964,101.665586 118.637797,101.665586 L118.140097,101.747896 L117.642397,101.917827 L116.725997,102.334689 L116.394197,102.58693 L115.812231,102.839172 L115.230264,102.671896 L114.980097,102.671896 L114.564031,102.58693 L114.147964,102.58693 L113.400097,102.754206 C113.068297,102.921482 112.736497,103.091413 112.320431,103.258689 L112.070264,103.258689 L111.406664,102.839172 L110.824697,102.334689 L110.240097,102.000137 L109.826664,101.665586 L109.658131,101.58062 L109.160431,101.331034 L108.828631,100.993827 L108.744364,100.744241 L108.662731,100.324723 L108.412564,99.9875166 L108.162397,99.6529649 L107.996497,99.5706545 L107.830597,99.485689 L107.746331,99.2334476 L107.664697,99.0661717 L107.498797,98.9838614 L107.164364,98.73162 L106.916831,98.73162 L106.748297,98.5643442 L106.748297,98.4793786 L106.582397,98.3121028 C106.500764,98.1448269 106.500764,97.8925855 106.416497,97.7253097 L106.500764,97.4730683 L106.250597,96.9712407 L105.918797,96.7189993 L106.166331,96.5517235 L106.500764,96.1322062 L106.666664,95.7976545 L106.582397,95.4604476 L106.748297,95.1258959 L106.832564,94.5391028 L106.500764,93.8699993 L106.416497,93.5327924 L106.500764,93.1982407 L106.334864,92.9459993 L106.000431,92.6964131 L106.000431,92.10962 L106.250597,91.939689 L106.416497,91.6051373 L106.334864,91.4378614 L106.500764,91.0183442 L106.832564,90.5988269 L106.998464,90.5165166 L107.164364,90.1793097 L107.164364,89.844758 L107.330264,89.4252407 L107.746331,89.1729993 L108.080764,88.5862062 L108.328297,88.33662 L108.910264,88.2516545 L109.326331,87.8321373 L109.576497,87.6648614 L109.992564,87.1630338 L109.826664,86.4089649 L109.992564,85.9044821 L109.992564,85.5699304 L110.324364,85.1504131 L110.824697,84.8981717 L111.238131,84.6459304 L111.488297,84.0591373 L111.572564,83.7245855 L111.988631,83.7245855 L112.402064,83.9768269 L112.902397,83.8918614 L113.484364,83.9768269 L113.734531,83.9768269 L114.147964,83.6422752 L114.729931,83.4723442 L114.980097,83.222758 L115.480431,83.0554821 C116.062397,82.9705166 116.560097,82.8855511 117.142064,82.8032407 L117.392231,82.8855511 L117.808297,82.6359649 L118.305997,82.6359649 L118.556164,82.7182752 L118.887964,82.6359649 L119.304031,82.3837235 L119.635831,82.468689 L119.801731,82.7182752 L120.136164,82.468689 L120.217797,82.5509993 L120.051897,82.8032407 L120.136164,83.0554821 L120.302064,83.222758 L120.383697,83.7245855 L120.136164,84.0591373 L120.302064,84.3963442 L120.552231,84.3963442 L120.718131,84.6459304 L120.884031,84.7308959 L121.465997,84.8981717 L121.631897,84.8158614 L122.047964,84.8981717 L122.711564,85.0654476 L123.045997,85.5699304 L123.462064,85.6522407 L124.125664,85.8221717 L124.791897,86.071758 L124.957797,85.9044821 L125.042064,85.6522407 L124.791897,85.1504131 L124.791897,84.8981717 L124.957797,84.56362 L125.207964,84.4786545 L125.705664,84.56362 L125.955831,84.8158614 L126.121731,84.8158614 L126.287631,84.8981717 L126.619431,84.8981717 L126.787964,85.0654476 L127.201397,84.9831373 C127.535831,85.0654476 127.783364,85.1504131 128.117797,85.317689 L128.283697,85.0654476 L128.365331,84.8981717 L128.615497,84.8158614 L128.865664,84.8158614 L129.031564,85.0654476 L129.031564,84.8981717 L129.281731,84.9831373 L129.529264,84.9831373 L129.613531,84.8158614 L129.613531,84.3963442 L129.529264,83.9768269 L129.529264,83.8095511 L129.447631,83.3050683 L129.363364,82.8855511 L129.115831,82.468689 L129.031564,82.2164476 L128.865664,81.9642062 L128.865664,81.7119649 L128.781397,81.7969304 L128.533864,81.7119649 L128.533864,82.0491717 L128.199431,82.2164476 L127.617464,81.8818959 L127.285664,81.8818959 L127.285664,82.1314821 L127.119764,82.2164476 L126.703697,81.9642062 L126.453531,82.0491717 L126.037464,81.544689 L125.705664,81.2951028 L125.624031,80.8755855 L125.289597,80.6233442 L125.373864,80.0365511 L125.789931,79.9515855 L125.705664,79.5347235 L126.287631,79.5347235 L126.453531,79.1152062 L126.619431,78.9479304 L127.035497,78.8629649 L127.617464,79.1975166 L128.033531,79.3647924 L128.199431,79.1975166 L128.365331,79.1975166 L128.449597,78.8629649 L128.365331,78.6107235 L128.117797,78.2761717 L127.867631,78.1088959 L127.701731,78.1088959 L127.535831,77.94162 L127.035497,77.6044131 L126.703697,77.4371373 L126.371897,77.1848959 L126.453531,77.1025855 L126.371897,76.6830683 L126.121731,76.5157924 L126.287631,76.2635511 L126.205997,76.1812407 L126.121731,76.2635511 L125.955831,76.3485166 L125.955831,76.5157924 L125.789931,76.5981028 L125.624031,76.7680338 L125.871564,77.1025855 L126.037464,77.1848959 L126.205997,77.1025855 L126.287631,77.2698614 L126.121731,77.4371373 L125.955831,77.7743442 L125.789931,77.6893786 L125.705664,77.4371373 L125.373864,77.3548269 L125.373864,77.2698614 L125.455497,77.1025855 L125.289597,77.01762 L124.873531,76.8503442 L124.707631,76.6830683 L124.541731,76.7680338 L124.625997,77.01762 L124.625997,77.4371373 L124.707631,77.6044131 L124.707631,77.6893786 L124.625997,77.6893786 L124.873531,78.2761717 L124.873531,78.5284131 L124.957797,78.9479304 L125.207964,79.1975166 L125.373864,79.3647924 L125.705664,79.5347235 L125.705664,79.7019993 L125.373864,79.7843097 L125.373864,79.9515855 L125.207964,80.2038269 L124.957797,79.9515855 L124.873531,79.8692752 L124.541731,79.8692752 L124.209931,80.0365511 L124.541731,80.2887924 L124.375831,80.3711028 L124.209931,80.3711028 L123.959764,80.2038269 L123.959764,80.2887924 L124.209931,80.6233442 L124.460097,80.8755855 L124.375831,81.0428614 L124.707631,81.2951028 L124.957797,81.4623786 L125.123697,81.7969304 L124.707631,81.7119649 L124.957797,81.9642062 L124.707631,81.8818959 L125.042064,82.3837235 L124.791897,82.3837235 L124.375831,82.2164476 L124.044031,81.7969304 L123.793864,81.4623786 C123.627964,81.2951028 123.377797,81.1251717 123.211897,80.9578959 L123.127631,80.79062 L123.045997,80.79062 L123.127631,80.6233442 L122.880097,80.4560683 L122.629931,80.2038269 L122.464031,79.8692752 L122.464031,79.7019993 L122.379764,79.6170338 L122.298131,79.6170338 L122.129597,79.3647924 C121.882064,79.2824821 121.716164,79.1975166 121.465997,79.1152062 L121.134197,78.9479304 L120.718131,78.8629649 L120.217797,78.5284131 L120.302064,78.4434476 L120.051897,78.2761717 L119.970264,78.1088959 L119.720097,78.0239304 L119.720097,78.2761717 L119.554197,78.1088959 L119.469931,77.94162 L119.554197,77.8566545 L119.219764,77.7743442 L118.972231,77.94162 L119.138131,78.1912062 L119.138131,78.3611373 L119.388297,78.6107235 L119.885997,78.8629649 L120.302064,79.2824821 L120.965664,79.7019993 L121.300097,79.7019993 L121.465997,79.7843097 L121.381731,79.8692752 C121.631897,79.9515855 121.882064,80.0365511 122.129597,80.2038269 L122.545664,80.4560683 L122.629931,80.5383786 L122.629931,80.7083097 L122.298131,80.4560683 L121.963697,80.3711028 L121.963697,80.7083097 L122.298131,80.8755855 L122.379764,81.1251717 L122.213864,81.2101373 L122.213864,81.7119649 L121.882064,81.8818959 C121.882064,81.7969304 121.797797,81.7969304 121.797797,81.7119649 L121.797797,81.2951028 C121.631897,81.1251717 121.465997,80.9578959 121.300097,80.7083097 L121.134197,80.6233442 L120.884031,80.3711028 L120.633864,80.3711028 L120.383697,80.2038269 L120.051897,80.2038269 L119.635831,79.9515855 C119.304031,79.7843097 118.972231,79.5347235 118.722064,79.3647924 L118.390264,78.8629649 L118.140097,78.7779993 L117.724031,78.6107235 L117.558131,78.695689 L117.307964,78.9479304 L117.142064,79.0302407 L116.810264,79.3647924 L115.812231,79.2824821 L115.145997,79.5347235 L115.230264,79.8692752 L115.396164,80.2038269 L115.064364,80.6233442 L114.482397,80.79062 L114.482397,80.9578959 L114.232231,81.2951028 L114.147964,81.7119649 L114.482397,82.0491717 L114.232231,82.298758 L114.232231,82.6359649 L113.816164,82.8032407 L113.565997,83.222758 C113.152564,83.222758 112.736497,83.222758 112.320431,83.3050683 L111.988631,83.5573097 L111.654197,83.5573097 L111.406664,83.3900338 L111.156497,83.0554821 L110.656164,82.9705166 L110.490264,83.1377924 L110.158464,83.0554821 L109.826664,83.1377924 L109.826664,82.7182752 L109.742397,82.3837235 L109.492231,82.3837235 L109.326331,82.2164476 L109.326331,81.8818959 L109.492231,81.7119649 L109.492231,81.4623786 L109.576497,81.1251717 L109.492231,80.8755855 L109.326331,80.7083097 L109.244697,80.5383786 L109.160431,80.1215166 L108.910264,79.8692752 L109.576497,79.449758 L110.240097,79.5347235 L110.906331,79.5347235 L111.488297,79.6170338 L111.904364,79.5347235 L112.736497,79.5347235 L112.902397,79.1975166 L112.652231,78.1912062 L111.988631,77.6893786 L111.488297,77.2698614 L110.656164,77.1025855 L110.490264,76.7680338 L111.072231,76.5981028 L111.904364,76.6830683 L111.572564,76.0962752 L112.070264,76.2635511 L112.984031,75.8440338 L112.984031,75.4245166 C113.234197,75.3422062 113.400097,75.2572407 113.650264,75.1749304 L113.816164,75.0076545 L113.816164,74.2509304 L114.232231,74.0013442 L114.564031,74.0013442 L114.564031,73.9163786 L114.898464,73.8340683 L115.064364,73.9163786 L115.230264,73.6641373 L115.064364,73.4968614 L114.898464,73.4968614 L114.564031,73.2472752 L114.316497,72.827758 L114.316497,72.5755166 L114.648297,72.4905511 L114.729931,72.3232752 L114.898464,72.1559993 L115.064364,72.4082407 L115.064364,72.5755166 L115.145997,72.6604821 L115.396164,72.7427924 L115.396164,72.9100683 L115.230264,72.9100683 L115.145997,73.2472752 L115.396164,73.4968614 L115.480431,73.6641373 L115.893864,73.7491028 L115.978131,73.9163786 L116.309931,73.8340683 L116.394197,73.6641373 L116.891897,73.8340683 L117.142064,74.0013442 L117.307964,73.8340683 C117.558131,73.6641373 117.724031,73.4968614 117.974197,73.4145511 L118.305997,73.4968614 L118.390264,73.5818269 L118.722064,73.5818269 L118.637797,73.4145511 L118.972231,73.2472752 L118.722064,72.6604821 L118.471897,72.3232752 L118.390264,72.073689 L118.556164,71.903758 L119.053864,72.2409649 L119.219764,72.2409649 C119.053864,72.073689 118.972231,71.8214476 118.806331,71.6541717 L118.722064,71.7364821 L118.390264,71.5692062 L118.140097,71.3169649 L118.390264,71.149689 L118.637797,71.0673786 L118.972231,71.0673786 L119.219764,70.9824131 L119.219764,70.7301717 L118.806331,70.5628959 L118.390264,70.6478614 L118.140097,70.8151373 L117.808297,70.9824131 L117.473864,70.7301717 L117.142064,70.6478614 L116.810264,70.2283442 L116.309931,69.8937924 L116.228297,69.6415511 L116.228297,69.3893097 L116.309931,68.8874821 L116.394197,68.8025166 L116.228297,68.6352407 L115.812231,68.4679649 L115.562064,68.6352407 L115.562064,68.8874821 L115.812231,69.1370683 L115.727964,69.4742752 L115.562064,69.8937924 L115.812231,70.4805855 L116.228297,70.7301717 L116.725997,70.8974476 L116.810264,71.4019304 L116.560097,71.5692062 L116.976164,72.3232752 L117.057797,72.7427924 L116.644364,72.7427924 L116.725997,73.0773442 L116.309931,73.1623097 L115.893864,72.7427924 C115.480431,72.4082407 114.980097,72.073689 114.564031,71.6541717 L114.147964,71.4019304 L113.816164,71.9887235 L113.400097,72.1559993 L112.736497,71.9887235 L112.320431,71.5692062 L111.572564,70.6478614 L111.738464,70.39562 L112.402064,69.9761028 L112.736497,69.5565855 L112.818131,68.9697924 L112.818131,68.2157235 L112.984031,67.8811717 L113.152564,67.376689 L113.484364,67.2094131 L113.816164,67.2094131 L113.734531,66.8748614 L114.066331,66.8748614 L114.316497,66.7898959 L115.145997,66.9598269 L115.230264,66.7898959 L115.727964,66.9598269 L115.727964,66.7898959 L116.228297,66.9598269 L116.725997,66.9598269 L117.724031,67.2094131 L118.055831,67.376689 L118.390264,67.6289304 L118.471897,67.8811717 L118.390264,68.0484476 C118.055831,67.9634821 117.642397,67.9634821 117.392231,67.8811717 L117.307964,67.9634821 L117.889931,68.2157235 L118.556164,68.8025166 L118.887964,68.8874821 L119.138131,68.9697924 L118.972231,68.7202062 L118.637797,68.5502752 L118.556164,68.3829993 L119.219764,68.5502752 L119.219764,68.4679649 L118.806331,68.2157235 L118.637797,67.7962062 L118.806331,67.7962062 L119.053864,67.8811717 L118.806331,67.6289304 L118.471897,67.4616545 L118.224364,67.2094131 L117.808297,67.0421373 L118.224364,67.0421373 L118.556164,67.2094131 L118.471897,67.2943786 L118.722064,67.4616545 L118.972231,67.54662 L118.972231,67.4616545 L118.637797,67.2094131 L118.556164,67.0421373 C108.412564,60.3351717 95.0273305,59.0792752 83.7197972,63.9408959 L83.7197972,64.1081717 L83.5512639,64.2754476 L83.3853639,64.3604131 L83.3037305,64.2754476 L83.3037305,64.1931373 L83.2194639,64.1931373 C82.2214305,64.6126545 81.2233972,65.1144821 80.2279972,65.7012752 L80.1437305,65.8685511 C79.8935639,66.0358269 79.6460305,66.2031028 79.3958639,66.4553442 L79.3115972,66.62262 L79.2299639,66.7898959 L78.9797972,66.9598269 L78.7296305,66.9598269 L78.6479972,67.1271028 L78.3978305,67.2094131 L78.3135639,67.1271028 L78.3135639,66.9598269 L78.2319305,66.7898959 L78.1476639,66.7898959 C78.0660305,66.8748614 77.9817639,66.8748614 77.9817639,66.9598269 L78.1476639,66.9598269 L78.0660305,67.0421373 L77.9001305,67.2943786 L78.0660305,67.2943786 L78.0660305,67.4616545 L78.3135639,67.4616545 L78.4820972,67.54662 L78.7296305,67.2943786 L78.8955305,67.2943786 L78.9797972,67.4616545 L78.5637305,67.7962062 L79.0640639,67.54662 L79.1456972,67.54662 L79.6460305,67.2094131 L79.7276639,66.9598269 L79.7276639,66.7898959 L80.2279972,66.4553442 L80.7256972,66.2880683 L80.8099639,66.3730338 L80.7256972,66.5403097 L80.3938972,66.9598269 L80.0594639,67.1271028 L80.3096305,67.2094131 L79.8935639,67.54662 L80.4755305,67.2943786 L80.3938972,67.54662 L79.9778305,67.7962062 L79.8935639,68.0484476 L80.3938972,67.7962062 L80.8915972,67.54662 L81.3919305,67.1271028 L81.6394639,67.2094131 L81.8896305,67.2943786 L81.9738972,67.4616545 L81.8053639,67.6289304 L81.3919305,67.7962062 L81.3076639,68.0484476 L81.0574972,68.2157235 L80.6414305,68.4679649 L80.2279972,68.4679649 L80.1437305,68.300689 L79.8935639,68.4679649 L79.3115972,68.7202062 L79.0640639,68.8874821 L78.5637305,69.1370683 L78.2319305,69.1370683 L77.9001305,69.3069993 L77.6499639,69.5565855 L77.3997972,69.5565855 L76.8178305,69.8088269 L76.1515972,70.2283442 L75.7381639,70.5628959 L75.2378305,71.0673786 L75.4879972,71.149689 L75.2378305,71.5692062 L74.9060305,71.903758 L75.3220972,71.903758 L75.5696305,72.1559993 L75.6538972,72.3232752 L75.6538972,72.5755166 L75.9040639,72.7427924 L76.0699639,72.9950338 L76.4860305,73.0773442 L76.7361972,73.1623097 L76.4860305,73.4968614 L76.2358639,74.0013442 L76.0699639,74.5881373 L76.2358639,75.0899649 L76.5676639,74.922689 L77.0679972,74.4208614 L77.3997972,73.6641373 L77.3997972,73.4145511 L78.0660305,73.2472752 L78.6479972,72.9950338 L79.0640639,72.6604821 L79.2299639,72.3232752 L79.3115972,71.903758 L79.2299639,71.5692062 L79.8935639,71.149689 L80.0594639,70.7301717 L80.4755305,70.0610683 L80.7256972,69.9761028 L81.1417639,70.1433786 L81.3919305,70.2283442 L81.7237305,70.1433786 L81.8896305,70.3106545 L82.0555305,70.5628959 L82.0555305,70.7301717 L82.6374972,70.8151373 L82.3873305,71.2346545 L82.1397972,71.8214476 L82.3873305,71.903758 L82.4715972,72.1559993 L83.1378305,71.903758 L83.8014305,71.4868959 L84.1358639,71.3169649 L84.2174972,71.7364821 C84.3017639,72.073689 84.3833972,72.4905511 84.5492972,72.9100683 L84.2174972,73.1623097 L84.6335639,73.4145511 L84.8837305,73.6641373 L85.4656972,73.8340683 L85.6315972,74.0013442 L85.6315972,74.4208614 L85.9633972,74.5031717 L86.0476639,74.6704476 L85.8817639,75.1749304 C85.6315972,75.2572407 85.3814305,75.4245166 85.1312639,75.5094821 L84.3833972,75.676758 L83.6355305,76.0113097 L82.8876639,76.0113097 L82.0555305,75.8440338 L81.0574972,75.8440338 L80.5597972,76.1812407 L79.9778305,76.3485166 C79.4774972,76.6830683 78.9797972,77.1025855 78.3978305,77.4371373 L78.8138972,77.3548269 L79.7276639,76.7680338 L80.8099639,76.4308269 L81.4735639,76.4308269 L81.7237305,76.6830683 L81.1417639,77.01762 L81.0574972,77.6044131 L81.0574972,78.0239304 L81.5578305,78.2761717 L82.3056972,78.2761717 L82.9692972,77.6893786 L82.8876639,78.0239304 L83.1378305,78.1912062 L82.2214305,78.5284131 L81.1417639,78.7779993 L80.6414305,78.9479304 L79.9778305,79.2824821 L79.6460305,79.1975166 L79.8119305,78.7779993 L80.7256972,78.3611373 L79.5617639,78.3611373 L79.5617639,78.5284131 L78.9797972,78.7779993 C78.6479972,78.8629649 78.3135639,78.9479304 77.9817639,79.0302407 C77.8158639,79.1975166 77.6499639,79.2824821 77.4840639,79.449758 L77.3997972,79.7843097 L77.3997972,80.0365511 L77.5656972,80.0365511 L77.5656972,79.8692752 L77.6499639,80.0365511 L77.5656972,80.2038269 L77.2338972,80.2887924 L77.0679972,80.2887924 L76.7361972,80.3711028 L76.3201305,80.3711028 L75.9040639,80.5383786 L76.5676639,80.4560683 L76.6519305,80.5383786 L75.9856972,80.6233442 L75.7381639,80.6233442 L75.7381639,80.5383786 L75.5696305,80.7083097 L75.6538972,80.7083097 L75.4037305,81.1251717 L74.9060305,81.544689 L74.9060305,81.3774131 L74.8217639,81.3774131 L74.7401305,81.2101373 L74.7401305,81.544689 L74.8217639,81.6296545 L74.7401305,81.7969304 C74.4899639,81.9642062 74.3240639,82.2164476 74.1581639,82.3837235 L74.4056972,82.0491717 L74.2397972,81.7969304 L74.4056972,81.3774131 L74.2397972,81.6296545 L74.1581639,81.8818959 L73.9079972,81.7969304 L74.0738972,81.9642062 L73.9079972,82.468689 L73.9922639,82.5509993 L73.9922639,82.7182752 L73.8237305,83.3050683 L73.4102972,83.7245855 L72.9099639,83.8918614 L72.4938972,84.2290683 L72.2463639,84.2290683 L72.0778305,84.56362 L71.4958639,84.8981717 L71.1640639,85.1504131 L70.8322639,85.4849649 L70.6663639,85.9044821 L70.5820972,86.3239993 L70.5820972,86.8258269 L70.6663639,87.2453442 L70.5820972,87.4975855 L70.5820972,88.1693442 C70.5004639,88.4189304 70.5004639,88.5862062 70.4161972,88.8384476 L70.2502972,89.1729993 L70.0843972,89.2579649 L69.9184972,89.1729993 L69.9184972,88.9234131 L69.8342305,88.7561373 C69.7499639,88.4189304 69.7499639,88.0843786 69.6683305,87.7498269 L69.6683305,87.4975855 L69.8342305,87.0780683 L69.8342305,86.7435166 L69.6683305,86.2390338 L69.5840639,86.1567235 L69.0863639,86.3239993 L69.0020972,86.3239993 L69.0020972,86.071758 L68.8361972,85.9044821 L68.4201305,85.9044821 L68.1699639,85.8221717 L67.9224305,85.8221717 L67.7565305,85.9044821 L67.7565305,86.071758 L67.6722639,86.3239993 L67.6722639,86.4089649 L67.5879972,86.4912752 L67.4220972,86.3239993 L67.2561972,86.4089649 L67.0060305,86.3239993 L66.9243972,86.071758 L66.6742305,86.071758 L66.5083305,85.9044821 L66.3424305,85.9044821 L66.0922639,85.9894476 L65.6761972,86.4089649 L65.3443972,86.5762407 L65.0942305,86.9107924 L64.9283305,87.1630338 C64.8466972,87.41262 64.7624305,87.5825511 64.7624305,87.8321373 L64.7624305,88.0843786 L64.5122639,88.5862062 L64.3463639,89.0057235 C64.2647305,89.3429304 64.1804639,89.7597924 64.0145639,90.0969993 L64.0145639,90.7661028 L63.9302972,91.2705855 L64.0145639,91.7724131 L64.0145639,92.10962 L64.0961972,92.4441717 L64.3463639,92.6964131 L64.4306305,92.9459993 L64.5965305,92.7787235 L64.8466972,92.7787235 C65.0125972,92.6964131 65.1784972,92.6964131 65.3443972,92.6114476 L65.5945639,92.3592062 L65.7604639,92.0246545 L65.9263639,91.5201717 L66.0106305,91.3528959 L66.2581639,91.18562 L66.5925972,91.1033097 L66.9243972,91.18562 L67.1745639,91.18562 L67.2561972,91.3528959 L67.1745639,91.6901028 L66.8401305,91.939689 L66.6742305,92.2768959 L66.7584972,92.3592062 C66.6742305,92.6114476 66.5925972,92.863689 66.5083305,93.1132752 L66.4240639,92.9459993 L66.3424305,92.9459993 L66.3424305,93.0309649 L66.4240639,93.0309649 L66.4240639,93.1982407 L66.3424305,93.4504821 L66.3424305,93.5327924 L66.2581639,93.7850338 L66.2581639,93.8699993 L66.1765305,94.2045511 L66.0922639,94.3718269 L66.0106305,94.3718269 L65.9263639,94.5391028 L66.0106305,94.7063786 L66.0922639,94.6240683 C66.0922639,94.7063786 66.1765305,94.7063786 66.2581639,94.7063786 L66.3424305,94.6240683 L66.4240639,94.6240683 L66.4240639,94.7063786 L66.5083305,94.7063786 L66.6742305,94.7913442 L66.8401305,94.7913442 L67.0060305,94.7063786 L67.0902972,94.6240683 L67.1745639,94.7063786 L67.2561972,94.7913442 L67.3404639,94.7913442 L67.4220972,94.7063786 L67.5879972,94.7913442 L67.6722639,94.7913442 L67.7565305,94.95862 L67.8381639,95.1258959 L68.0040639,95.2108614 L68.0883305,95.3781373 L68.0883305,95.8799649 L68.0040639,96.0472407 L67.9224305,96.2994821 L67.9224305,96.9712407 L67.8381639,97.0535511 L67.7565305,97.3057924 L67.7565305,97.4730683 L67.6722639,97.6403442 L67.6722639,97.80762 L67.7565305,97.8925855 L67.8381639,98.2271373 C68.0040639,98.4793786 68.1699639,98.8139304 68.3384972,99.0661717 L68.3384972,99.2334476 L68.5043972,99.3184131 L68.5043972,99.2334476 L68.5860305,99.4007235 L68.8361972,99.4007235 L69.0020972,99.2334476 L69.2522639,99.1511373 L69.4181639,98.9838614 L69.6683305,99.0661717 L69.6683305,99.1511373 L69.9184972,99.2334476 L70.0843972,99.4007235 L70.2502972,99.5706545 L70.4161972,99.7379304 L70.6663639,99.7379304 L70.9981639,99.3184131 L71.1640639,99.2334476 L71.1640639,98.9838614 L71.2483305,98.4793786 L71.4958639,98.2271373 L71.8302972,98.2271373 L71.9119305,98.0598614 L72.2463639,98.1448269 C72.4122639,97.9775511 72.6597972,97.80762 72.8283305,97.7253097 L73.0758639,97.4730683 L73.2417639,97.5580338 L73.3260305,97.7253097 L73.2417639,97.9775511 L73.2417639,98.1448269 L72.9099639,98.2271373 L73.0758639,98.5643442 L73.0758639,98.8988959 L72.8283305,99.2334476 L72.9942305,99.7379304 L73.2417639,99.7379304 L73.3260305,99.2334476 L73.1601305,98.9838614 L73.1601305,98.4793786 L73.8237305,98.2271373 L73.7420972,97.8925855 L73.9079972,97.7253097 L74.0738972,98.2271373 L74.4056972,98.2271373 L74.7401305,98.6466545 L74.7401305,98.8988959 L75.8197972,98.8988959 L76.1515972,99.2334476 L76.5676639,99.3184131 L76.9020972,99.1511373 L76.9020972,98.9838614 L78.2319305,98.9838614 L77.7315972,99.1511373 L77.9001305,99.485689 L78.3135639,99.5706545 L78.7296305,99.9052062 L78.8138972,100.407034 L79.1456972,100.407034 C79.3115972,100.57431 79.5617639,100.659275 79.7276639,100.826551 L80.0594639,101.246068 L80.0594639,101.58062 L80.3096305,101.58062 C80.4755305,101.747896 80.6414305,102.000137 80.8099639,102.167413 L81.4735639,102.334689 L81.5578305,102.252379 L82.0555305,102.252379 L82.7217639,102.419655 C82.9692972,102.50462 83.1378305,102.58693 83.3853639,102.671896 L84.0515972,103.258689 L84.1358639,103.508275 L84.3017639,103.508275 L84.4676639,103.845482 L84.7994639,104.934103 L85.1312639,105.019068 L85.1312639,105.438586 L84.7178305,105.940413 L84.8837305,106.107689 L85.9633972,106.274965 L86.0476639,106.861758 L86.4637305,106.444896 C87.0456972,106.612172 87.7092972,106.861758 88.2912639,107.113999 L88.6230639,107.448551 L88.5414305,107.785758 L89.2892972,107.618482 L90.5374972,107.953034 L91.4512639,107.953034 L92.3650305,108.454861 L93.1971639,109.12662 L93.6948639,109.293896 L94.2768305,109.293896 L94.5269972,109.461172 C94.6112639,109.880689 94.7771639,110.215241 94.8587972,110.552448 L94.6112639,111.556103 L94.2768305,112.060586 L93.4473305,112.89962 L93.1128972,113.568723 L92.6994639,114.073206 L92.5309305,114.073206 L92.3650305,114.407758 L92.4492972,115.496379 C92.3650305,115.915896 92.3650305,116.335413 92.2833972,116.669965 L92.1174972,116.922206 L92.1174972,117.676275 L91.6171639,118.348034 L91.6171639,118.849861 L91.2010972,119.102103 L91.1194639,119.436655 L90.5374972,119.436655 L89.7053639,119.606586 L89.3735639,119.856172 L88.7915972,120.023448 L88.2096305,120.442965 L87.8751972,120.947448 L87.8751972,121.281999 L88.0410972,121.534241 L88.0410972,122.036068 L87.8751972,122.121034 L87.5433972,122.37062 L87.2115972,123.209655 L86.8771639,123.544206 L86.6296305,123.796448 L86.5453639,124.215965 L86.2951972,124.468206 L86.2135639,124.717792 L85.7974972,124.970034 L85.4656972,124.887723 L85.2155305,124.887723 L84.7178305,124.717792 L84.3833972,124.717792 L84.0515972,124.468206 L84.0515972,124.635482 L84.7994639,125.054999 L84.8837305,125.389551 L85.2155305,125.556827 L85.2997972,125.809068 L85.0496305,126.310896 L84.5492972,126.480827 L83.7197972,126.563137 L83.2194639,126.480827 L83.4696305,126.730413 L83.5512639,127.06762 L83.7197972,127.234896 L83.5512639,127.402172 L83.2194639,127.402172 L82.7217639,127.234896 L82.6374972,127.317206 L82.9692972,127.736723 L83.3037305,127.903999 L83.4696305,127.821689 L83.7197972,127.988965 L83.4696305,128.071275 L83.3037305,128.323517 L83.4696305,128.743034 L83.5512639,128.91031 L83.2194639,128.827999 L83.0535639,128.995275 L83.1378305,129.244861 L83.6355305,129.497103 L84.0515972,129.582068 L84.2174972,129.91662 L84.0515972,130.168861 L84.2174972,130.588379 L84.0515972,130.670689 L84.0515972,130.837965 L84.4676639,131.175172 L84.8837305,131.342448 L84.4676639,131.342448 L84.3833972,131.424758 L84.2174972,131.509723 L84.4676639,131.761965 L84.3833972,131.761965 L83.9673305,131.676999 C83.6355305,131.509723 83.2194639,131.342448 82.8876639,131.257482 L82.5558639,131.005241 L82.3873305,130.837965 L82.0555305,130.588379 L81.4735639,130.001586 L81.2233972,129.664379 L81.3076639,129.414792 L80.7256972,129.244861 L80.7256972,128.91031 L80.3096305,128.323517 L80.8099639,128.490792 L80.3938972,127.736723 L80.0594639,127.654413 L80.3096305,128.156241 L80.0594639,127.988965 C79.8119305,127.569448 79.5617639,127.14993 79.3115972,126.648103 L79.3115972,126.395861 L78.8955305,125.976344 L78.5637305,125.474517 L78.7296305,125.474517 L78.3978305,124.130999 L78.2319305,123.461896 L77.8158639,122.790137 L77.7315972,122.37062 L77.3997972,121.783827 L77.3997972,121.197034 L77.0679972,120.275689 C76.9020972,119.52162 76.7361972,118.767551 76.4860305,118.095792 C76.3201305,117.508999 76.0699639,117.007172 75.8197972,116.420379 L75.2378305,116.083172 L75.1561972,115.833586 L74.0738972,115.246792 L73.0758639,114.575034 L72.6597972,114.240482 L72.3279972,113.735999 L72.3279972,113.568723 C71.5801305,112.562413 70.9981639,111.556103 70.4161972,110.467482 L70.1660305,110.215241 L69.9184972,109.795723 L69.5024305,109.378861 L69.1679972,109.12662 L69.2522639,108.874379 L69.0863639,108.035344 L69.1679972,107.618482 L69.4181639,107.281275 L69.5840639,106.861758 L69.4181639,106.612172 L69.2522639,106.861758 L69.0020972,106.527206 L69.0863639,106.35993 L68.9204639,105.773137 L69.0863639,105.688172 L69.0863639,105.27131 L69.2522639,104.851792 L69.1679972,104.599551 L69.4181639,104.514586 L69.6683305,104.264999 L69.5840639,104.095068 L69.7499639,104.095068 L69.7499639,103.760517 L69.8342305,103.508275 L70.0843972,103.508275 C70.1660305,103.258689 70.3319305,103.006448 70.4161972,102.839172 L70.2502972,102.671896 L70.3319305,102.334689 L70.2502972,101.747896 L70.3319305,101.58062 L70.2502972,100.993827 L70.0843972,100.659275 L69.9184972,100.491999 L69.8342305,100.157448 L69.9184972,99.9875166 L69.8342305,99.9052062 L69.7499639,99.6529649 L69.5024305,99.485689 L69.3338972,99.485689 L69.2522639,99.7379304 L69.0863639,99.9052062 L69.0020972,99.9052062 L68.9204639,100.072482 L69.0863639,100.324723 L69.0020972,100.407034 L68.9204639,100.491999 L68.7519305,100.491999 L68.6702972,100.072482 L68.5860305,100.157448 L68.4201305,100.072482 L68.3384972,99.8202407 L68.1699639,99.7379304 L68.0883305,99.6529649 L67.9224305,99.6529649 L67.9224305,99.8202407 L67.8381639,99.7379304 L67.5879972,99.5706545 L67.5063639,99.4007235 L67.5879972,99.3184131 L67.5879972,99.1511373 L67.5063639,98.9838614 L67.3404639,98.8139304 L67.1745639,98.73162 L67.1745639,98.5643442 L67.0902972,98.3944131 L67.0902972,98.5643442 L67.0060305,98.73162 L66.9243972,98.6466545 L66.8401305,98.5643442 L66.7584972,98.3944131 L66.7584972,98.2271373 L66.8401305,98.0598614 L66.7584972,97.9775511 L66.8401305,97.8925855 C66.7584972,97.7253097 66.6742305,97.5580338 66.5925972,97.390758 L66.5083305,97.1385166 L66.3424305,96.8862752 L66.1765305,96.5517235 L66.2581639,96.466758 L66.3424305,96.5517235 L66.3424305,96.466758 L66.2581639,96.2994821 L66.1765305,96.2171717 L66.0922639,96.3844476 L65.8420972,96.3844476 L65.7604639,96.2171717 L65.5945639,96.1322062 L65.4286639,96.0472407 L65.3443972,95.8799649 L65.1784972,95.712689 L65.0125972,95.712689 L64.8466972,95.5454131 L64.6781639,95.2931717 L64.4306305,94.5391028 L64.2647305,94.2868614 L64.0961972,94.1195855 L63.9302972,94.1195855 L63.6827639,94.2868614 L63.5142305,94.2868614 L63.1824305,93.9523097 L63.0165305,93.617758 L62.8506305,93.4504821 L62.6847305,93.1132752 L62.6004639,92.7787235 L62.6004639,92.6114476 L62.4345639,92.6114476 L62.2686639,92.3592062 L62.2686639,92.0246545 L62.1843972,91.6051373 L62.1843972,90.8510683 L62.2686639,90.7661028 L62.2686639,90.5988269 L62.3502972,90.4315511 L62.4345639,90.1793097 L62.4345639,89.7597924 C62.5161972,89.2579649 62.5161972,88.7561373 62.5161972,88.2516545 L62.6004639,87.8321373 L62.6004639,87.41262 L62.7663639,87.0780683 L62.7663639,86.8258269 C62.6004639,87.41262 62.4345639,87.9994131 62.2686639,88.5862062 L62.2686639,89.0057235 L62.1843972,89.1729993 C58.2765305,104.264999 64.2647305,120.52793 76.8178305,129.497103 C81.0574972,132.516034 85.9633972,134.610965 91.0351972,135.702241 C90.9535639,135.702241 90.8692972,135.617275 90.7033972,135.617275 L90.3715972,135.53231 L90.2873305,135.449999 L90.2030639,135.365034 L90.1214305,135.282723 C90.0371639,135.197758 89.8712639,135.197758 89.7869972,135.115448 L89.7053639,135.030482 L89.7053639,134.863206 L89.7869972,134.778241 L89.7053639,134.69593 L89.7053639,134.610965 L89.7869972,134.528655 L89.9555305,134.528655 L90.0371639,134.443689 L90.2873305,134.443689 L90.4532305,134.276413 L90.6191305,134.276413 L90.8692972,134.358723 L90.8692972,134.443689 L90.7033972,134.528655 L90.2030639,134.528655 C90.1214305,134.528655 90.1214305,134.610965 90.0371639,134.610965 L90.0371639,134.69593 L90.1214305,134.778241 L90.2873305,134.863206 L90.4532305,134.945517 L90.2030639,134.945517 L90.2030639,135.197758 L90.2873305,135.282723 L90.4532305,135.365034 L90.6191305,135.449999 C90.7850305,135.449999 90.9535639,135.53231 91.1194639,135.53231 C91.4512639,135.617275 91.7014305,135.702241 92.0332305,135.869517 L92.3650305,136.036792 C95.0273305,136.45631 97.7712639,136.53862 100.512564,136.371344 L100.346664,136.371344 L100.430931,136.289034 L100.596831,136.289034 C100.928631,136.289034 101.178797,136.204068 101.510597,136.119103 L101.676497,136.036792 L101.845031,135.951827 L102.092564,135.951827 L102.092564,136.036792 L102.342731,136.036792 L102.426997,135.951827 L102.592897,135.869517 L102.758797,135.869517 L102.758797,135.951827 L103.008964,135.951827 C103.174864,135.951827 103.340764,135.869517 103.590931,135.869517 L103.756831,135.869517 L103.756831,135.951827 C104.338797,135.784551 104.920764,135.784551 105.502731,135.702241 L105.752897,135.617275 L106.000431,135.617275 C116.144031,133.437379 124.707631,127.06762 129.945331,118.430344 L129.697797,118.682586 L129.697797,118.430344 L129.779431,118.180758 L130.029597,117.676275 C130.111231,117.426689 130.279764,117.174448 130.361397,116.922206 L130.611564,116.502689 L130.695831,116.420379 L130.777464,116.253103 L131.027631,115.833586 L131.193531,115.496379 C131.277797,115.161827 131.443697,114.74231 131.609597,114.407758 L131.775497,114.073206 L131.941397,113.735999 L132.025664,113.653689 L132.191564,113.486413 L132.273197,113.401448 L132.357464,113.401448 C132.523364,113.149206 132.689264,112.89962 132.773531,112.647379 L132.939431,112.312827 L133.023697,112.060586 L133.023697,112.145551 C135.101397,107.113999 135.849264,101.917827 135.599097,96.8039649 L135.599097,96.8039649 Z M132.689264,85.1504131 L132.689264,85.317689 C132.855164,85.6522407 133.023697,85.9044821 133.105331,86.2390338 L133.189597,86.3239993 L133.271231,86.4912752 L133.437131,86.7435166 L133.521397,86.995758 L133.605664,87.1630338 L133.687297,87.3303097 L133.771564,87.4975855 C133.853197,87.5825511 133.853197,87.7498269 133.937464,87.8321373 L133.771564,87.41262 L133.687297,87.0780683 L133.687297,86.995758 L133.771564,87.1630338 C133.605664,86.7435166 133.521397,86.3239993 133.355497,85.9894476 C133.105331,85.5699304 132.939431,85.1504131 132.689264,84.7308959 L132.689264,84.8158614 L132.523364,84.6459304 L132.607631,84.8981717 L132.523364,84.8981717 L132.689264,85.1504131 L132.689264,85.1504131 Z M133.853197,87.1630338 L133.853197,87.1630338 C133.853197,87.1630338 133.853197,87.2453442 133.853197,87.1630338 L133.853197,87.1630338 Z M134.103364,88.0843786 C134.019097,87.9171028 134.019097,87.7498269 133.937464,87.5825511 L134.019097,87.9171028 L134.103364,88.0843786 L134.103364,88.0843786 Z" sketch:type="MSShapeGroup"></path>
        </g>
    </g>
</svg>