<?xml version="1.0" encoding="UTF-8" standalone="no"?>
<svg width="200px" height="200px" viewBox="0 0 200 200" version="1.1" xmlns="http://www.w3.org/2000/svg" xmlns:xlink="http://www.w3.org/1999/xlink" xmlns:sketch="http://www.bohemiancoding.com/sketch/ns">
    <!-- Generator: Sketch 3.4.4 (17249) - http://www.bohemiancoding.com/sketch -->
    <title>grow_your_business@2x</title>
    <desc>Created with Sketch.</desc>
    <defs></defs>
    <g id="Page-1" stroke="none" stroke-width="1" fill="none" fill-rule="evenodd" sketch:type="MSPage">
        <g id="grow_your_business" sketch:type="MSArtboardGroup" fill="#D0E8F6">
            <g id="grow_business" sketch:type="MSLayerGroup" transform="translate(63.000000, 62.000000)">
                <path d="M1.76845688,65.7326021 C0.912934947,65.7326021 0.2,66.4170197 0.2,67.2725416 L0.2,73.8315431 C0.2,74.6870651 0.912934947,75.4 1.76845688,75.4 L11.9206505,75.4 C12.7761725,75.4 13.4891074,74.6870651 13.4891074,73.8315431 L13.4891074,67.2725416 C13.4891074,66.4170197 12.7761725,65.7326021 11.9206505,65.7326021 L1.76845688,65.7326021 L1.76845688,65.7326021 Z M22.1013616,63.3086233 C21.2458396,63.3086233 20.5614221,63.9930408 20.5614221,64.8485628 L20.5614221,73.8315431 C20.5614221,74.6870651 21.2458396,75.4 22.1013616,75.4 L32.2820726,75.4 C33.1375946,75.4 33.8505295,74.6870651 33.8505295,73.8315431 L33.8505295,64.8485628 C33.8505295,63.9930408 33.1375946,63.3086233 32.2820726,63.3086233 L22.1013616,63.3086233 L22.1013616,63.3086233 Z M3.05173979,59.344705 C2.19621785,59.3732224 1.4832829,60.0861573 1.5118003,60.9701967 C1.5403177,61.8257186 2.25325265,62.5101362 3.13729198,62.4816188 C3.99281392,62.4531014 4.67723147,61.7401664 4.64871407,60.8846445 C4.62019667,60.0291225 3.93577912,59.344705 3.05173979,59.344705 L3.05173979,59.344705 Z M9.26853253,58.8884266 C8.41301059,58.916944 7.70007564,59.629879 7.72859304,60.5139183 C7.75711044,61.3694402 8.47004539,62.0538578 9.35408472,62.0253404 C10.2096067,61.996823 10.8940242,61.283888 10.8655068,60.4283661 C10.8369894,59.5728442 10.1240545,58.8599092 9.26853253,58.8884266 L9.26853253,58.8884266 Z M15.4568079,57.9473525 C14.6012859,57.9758699 13.888351,58.6888048 13.9168684,59.5728442 C13.9453858,60.4283661 14.6583207,61.1127837 15.5423601,61.0842663 C16.397882,61.0557489 17.0822995,60.3428139 17.0537821,59.487292 C17.0537821,58.63177 16.3408472,57.9188351 15.4568079,57.9473525 L15.4568079,57.9473525 Z M21.4454614,56.4929652 C20.5899395,56.5214826 19.8770045,57.2344175 19.9055219,58.0899395 C19.9340393,58.9454614 20.6469743,59.6583964 21.5310136,59.629879 C22.3865356,59.6013616 23.0709531,58.8884266 23.0424357,58.0043873 C23.0139183,57.1488654 22.3009834,56.4929652 21.4454614,56.4929652 L21.4454614,56.4929652 Z M42.4342663,55.0956127 C41.5787443,55.0956127 40.8658094,55.7800303 40.8658094,56.6355522 L40.8658094,73.8315431 C40.8658094,74.6870651 41.5787443,75.4 42.4342663,75.4 L52.6149773,75.4 C53.4704992,75.4 54.1549168,74.6870651 54.1549168,73.8315431 L54.1549168,56.6355522 C54.1549168,55.7800303 53.4704992,55.0956127 52.6149773,55.0956127 L42.4342663,55.0956127 L42.4342663,55.0956127 Z M27.2344932,54.325643 C26.3789713,54.3541604 25.6945537,55.0670953 25.7230711,55.9226172 C25.7515885,56.7781392 26.4645234,57.4910741 27.3200454,57.4625567 C28.1755673,57.4340393 28.8885023,56.7211044 28.8599849,55.8370651 C28.8314675,54.9815431 28.0900151,54.2971256 27.2344932,54.325643 L27.2344932,54.325643 Z M32.738351,51.5879728 C31.882829,51.6164902 31.1984115,52.3294251 31.2269289,53.2134644 C31.2554463,54.0689864 31.9683812,54.7534039 32.8239032,54.7248865 C33.6794251,54.6963691 34.3923601,53.9834342 34.3638427,53.1279123 C34.3638427,52.2438729 33.6223903,51.5594554 32.738351,51.5879728 L32.738351,51.5879728 Z M37.8429652,48.023298 C36.9874433,48.0518154 36.3030257,48.7647504 36.3315431,49.6202723 C36.3600605,50.4757943 37.0729955,51.1887292 37.9285174,51.1602118 C38.7840393,51.1316944 39.4969743,50.4187595 39.4684569,49.5347201 C39.4399395,48.6791982 38.6984871,47.9947806 37.8429652,48.023298 L37.8429652,48.023298 Z M42.4057489,43.9453101 C41.5502269,43.9738275 40.8658094,44.6867625 40.8943268,45.5708018 C40.9228442,46.4263238 41.6357791,47.1107413 42.4913011,47.0822239 C43.346823,47.0537065 44.0597579,46.3407716 44.0312405,45.4852496 C44.0027231,44.6012103 43.2897882,43.9167927 42.4057489,43.9453101 L42.4057489,43.9453101 Z M46.4837368,39.2969743 C45.6282148,39.3254917 44.9152799,40.0384266 44.9437973,40.922466 C44.9723147,41.7779879 45.6852496,42.4624054 46.569289,42.433888 C47.4248109,42.4053707 48.1092284,41.6924357 48.080711,40.8369138 C48.080711,39.9813918 47.3677761,39.2684569 46.4837368,39.2969743 L46.4837368,39.2969743 Z M49.9913767,34.1638427 C49.1358548,34.1923601 48.4514372,34.905295 48.4799546,35.7893343 C48.508472,36.6448563 49.221407,37.3292738 50.0769289,37.3007564 C50.9324508,37.272239 51.6453858,36.5593041 51.6168684,35.7037821 C51.6168684,34.8482602 50.875416,34.1353253 49.9913767,34.1638427 L49.9913767,34.1638427 Z M52.8716339,28.7455371 C52.016112,28.7740545 51.303177,29.4869894 51.3316944,30.3710287 C51.3602118,31.2265507 52.0731467,31.9109682 52.9571861,31.8824508 C53.812708,31.8539334 54.4971256,31.1409985 54.4686082,30.2854766 C54.4400908,29.4299546 53.7271558,28.7170197 52.8716339,28.7455371 L52.8716339,28.7455371 Z M55.2670953,23.0705749 C54.4115734,23.0990923 53.6986384,23.8120272 53.7271558,24.6675492 C53.7556732,25.5230711 54.4686082,26.2360061 55.3526475,26.2074887 C56.2081694,26.1789713 56.892587,25.4660363 56.8640696,24.581997 C56.8355522,23.726475 56.1226172,23.0420575 55.2670953,23.0705749 L55.2670953,23.0705749 Z M62.7956884,19.2492436 C61.9401664,19.2492436 61.2272315,19.9336611 61.2272315,20.7891831 L61.2272315,73.8315431 C61.2272315,74.6870651 61.9401664,75.4 62.7956884,75.4 L72.947882,75.4 C73.8034039,75.4 74.5163389,74.6870651 74.5163389,73.8315431 L74.5163389,20.7891831 C74.5163389,19.9336611 73.8034039,19.2492436 72.947882,19.2492436 L62.7956884,19.2492436 L62.7956884,19.2492436 Z M56.9496218,17.4241301 C56.0940998,17.4526475 55.3811649,18.1655825 55.4096823,19.0496218 C55.4381997,19.9051437 56.1511346,20.5895613 57.035174,20.5610439 C57.8906959,20.5325265 58.5751135,19.8195915 58.5465961,18.9640696 C58.5180787,18.0800303 57.8051437,17.3956127 56.9496218,17.4241301 L56.9496218,17.4241301 Z M58.0332829,11.6350983 C57.177761,11.6636157 56.4933434,12.3765507 56.5218608,13.2320726 C56.5503782,14.0875946 57.2633132,14.8005295 58.1188351,14.7720121 C58.974357,14.7434947 59.687292,14.0305598 59.6587746,13.1465204 C59.6302572,12.2624811 58.9173222,11.6065809 58.0332829,11.6350983 L58.0332829,11.6350983 Z M58.3754917,0 C58.0047655,0 57.6055219,0.199621785 57.3773828,0.570347958 L53.5560514,7.18638427 C53.0997731,7.95635401 53.670121,8.92594554 54.5541604,8.92594554 L62.2253404,8.95446293 C63.1093797,8.95446293 63.6512103,7.98487141 63.1949319,7.21490166 L61.8546142,4.87647504 L60.7139183,2.88025719 L59.3450832,0.570347958 C59.116944,0.199621785 58.7747352,0 58.3754917,0 L58.3754917,0 Z" id="Shape" sketch:type="MSShapeGroup"></path>
            </g>
        </g>
    </g>
</svg>