<?xml version="1.0" encoding="UTF-8" standalone="no"?>
<svg width="200px" height="200px" viewBox="0 0 200 200" version="1.1" xmlns="http://www.w3.org/2000/svg" xmlns:xlink="http://www.w3.org/1999/xlink" xmlns:sketch="http://www.bohemiancoding.com/sketch/ns">
    <!-- Generator: Sketch 3.4.4 (17249) - http://www.bohemiancoding.com/sketch -->
    <title>responsive@2x</title>
    <desc>Created with Sketch.</desc>
    <defs></defs>
    <g id="Page-1" stroke="none" stroke-width="1" fill="none" fill-rule="evenodd" sketch:type="MSPage">
        <g id="responsive" sketch:type="MSArtboardGroup" fill="#D0E8F6">
            <path d="M96.8528,73.5185282 C96.8528,73.2873169 96.7376,73.1656901 96.5012,73.1656901 C96.2692,73.1656901 96.1476,73.2812958 96.1476,73.5185282 C96.1476,73.7513451 96.2628,73.8733732 96.5012,73.8733732 C96.7376,73.8733732 96.8528,73.7577676 96.8528,73.5185282 L96.8528,73.5185282 Z M138.1872,75.0450845 L138.1872,81.9597465 L134.6844,81.9597465 L134.6844,75.1606901 L58.3224,75.1606901 L58.3224,120.155366 L108.5288,120.155366 L108.5288,123.437683 L54.8196,123.437683 L54.8196,75.1606901 C54.8196,73.4029225 56.3408,72 58.092,72 L134.9208,72 C136.7892,72 138.1872,73.4029225 138.1872,75.0450845 L138.1872,75.0450845 Z M108.5288,127.416845 L108.5288,124.023739 L103.7432,124.023739 L103.7432,124.372162 C103.7432,124.842211 103.2744,125.312662 102.5756,125.312662 L90.5464,125.312662 C89.8472,125.312662 89.3788,124.957817 89.3788,124.372162 L89.3788,124.017317 L47,124.017317 L47,126.007901 C47,127.410824 48.5192,128.582535 50.2708,128.582535 L109.1188,128.582535 C109.1124,128.588556 108.5288,128.118507 108.5288,127.416845 L108.5288,127.416845 Z M151.8448,98.1244648 L135.0376,98.1244648 L135.0376,122.73 L151.8508,122.73 L151.8508,98.1244648 L151.8448,98.1244648 L151.8448,98.1244648 Z M145.308,125.543873 C145.308,124.487768 144.4936,123.6705 143.4412,123.6705 C142.3888,123.6705 141.5748,124.487768 141.5748,125.543873 C141.5748,126.599979 142.3888,127.416845 143.4412,127.416845 C144.4936,127.416845 145.308,126.599979 145.308,125.543873 L145.308,125.543873 Z M141.106,96.0198803 C141.106,96.1354859 141.2212,96.2510915 141.3364,96.2510915 C141.4532,96.2510915 141.5684,96.1354859 141.5684,96.0198803 C141.5684,95.9030704 141.4532,95.7874648 141.3364,95.7874648 C141.2212,95.7810423 141.106,95.8966479 141.106,96.0198803 L141.106,96.0198803 Z M142.504,96.0198803 C142.504,96.1354859 142.6208,96.2510915 142.736,96.2510915 L144.956,96.2510915 C145.0712,96.2510915 145.1864,96.1354859 145.1864,96.0198803 C145.1864,95.9030704 145.0712,95.7874648 144.956,95.7874648 L142.736,95.7874648 C142.504,95.7810423 142.504,95.8966479 142.504,96.0198803 L142.504,96.0198803 Z M152.782,95.3105915 L152.782,127.064007 C152.782,127.880873 151.9676,128.588556 151.0304,128.588556 L135.7368,128.588556 C134.7996,128.588556 133.9852,127.887296 133.9852,127.064007 L133.9852,95.3105915 C133.9852,94.4937254 134.7996,93.7860423 135.7368,93.7860423 L151.0304,93.7860423 C151.9676,93.7920634 152.782,94.4937254 152.782,95.3105915 L152.782,95.3105915 Z M143.4412,123.901711 C142.504,123.901711 141.8052,124.603373 141.8052,125.543873 C141.8052,126.484373 142.504,127.185634 143.4412,127.185634 C144.3784,127.185634 145.0776,126.484373 145.0776,125.543873 C145.0776,124.603373 144.2552,123.901711 143.4412,123.901711 L143.4412,123.901711 Z M144.8392,107.266944 L143.088,110.311627 L142.0372,108.554261 L139.8172,112.423838 L147.758,112.423838 L144.8392,107.266944 L144.8392,107.266944 Z M128.4928,100.12107 L125.9272,104.45307 L124.4064,101.878437 L121.2572,107.498155 L132.5856,107.498155 L128.4928,100.12107 L128.4928,100.12107 Z M99.3032,91.6802535 L95.2168,98.8257254 L92.7664,94.609331 L87.512,103.629782 L106.3088,103.629782 L99.3032,91.6802535 L99.3032,91.6802535 Z M127.3252,83.1314577 C127.3252,82.8986408 127.21,82.7766127 126.9736,82.7766127 C126.7416,82.7766127 126.62,82.8922183 126.62,83.1314577 C126.62,83.362669 126.7368,83.4842958 126.9736,83.4842958 C127.204,83.4842958 127.3252,83.2470634 127.3252,83.1314577 L127.3252,83.1314577 Z M125.812,125.659479 C125.812,126.715585 126.6264,127.532451 127.6788,127.532451 C128.7312,127.532451 129.5452,126.715585 129.5452,125.659479 C129.5452,124.603373 128.7312,123.786106 127.6788,123.786106 C126.6264,123.786106 125.812,124.603373 125.812,125.659479 L125.812,125.659479 Z M145.0776,83.1314577 L145.0776,93.4440423 L142.6272,93.4440423 L142.6272,84.303169 L111.4476,84.303169 L111.4476,122.969239 L133.7472,122.969239 L133.7472,126.837211 C133.7472,127.538873 133.9792,128.008923 134.4476,128.479373 L110.3952,128.479373 C109.5812,128.479373 108.876,127.777711 108.876,126.837211 L108.876,83.1314577 C108.876,82.1909577 109.5748,81.4892958 110.3952,81.4892958 L143.5564,81.4892958 C144.4936,81.4892958 145.0776,82.1909577 145.0776,83.1314577 L145.0776,83.1314577 Z M126.0424,125.659479 C126.0424,124.720585 126.7416,124.017317 127.6788,124.017317 C128.616,124.017317 129.3148,124.720585 129.3148,125.659479 C129.3148,126.599979 128.616,127.301239 127.6788,127.301239 C126.748,127.301239 126.0424,126.599979 126.0424,125.659479 L126.0424,125.659479 Z" id="simple_use" sketch:type="MSShapeGroup"></path>
        </g>
    </g>
</svg>