<?xml version="1.0" encoding="UTF-8" standalone="no"?>
<svg width="200px" height="200px" viewBox="0 0 200 200" version="1.1" xmlns="http://www.w3.org/2000/svg" xmlns:xlink="http://www.w3.org/1999/xlink" xmlns:sketch="http://www.bohemiancoding.com/sketch/ns">
    <!-- Generator: Sketch 3.4.4 (17249) - http://www.bohemiancoding.com/sketch -->
    <title>tools@2x</title>
    <desc>Created with Sketch.</desc>
    <defs></defs>
    <g id="Page-1" stroke="none" stroke-width="1" fill="none" fill-rule="evenodd" sketch:type="MSPage">
        <g id="tools" sketch:type="MSArtboardGroup" fill="#D0E8F6">
            <g sketch:type="MSLayerGroup" transform="translate(65.000000, 65.000000)">
                <path d="M56.7301132,13.2078113 L56.7301132,13.2078113 C54.8675849,11.345283 54.8675849,8.31018868 56.7301132,6.44766038 L61.04,2.13698113 C61.5318491,1.64486792 61.2383774,0.86245283 60.5518491,0.667773585 C56.3367925,-0.507962264 51.5379623,0.568981132 48.205434,3.90045283 C44.579434,7.52750943 43.6979623,12.7186038 45.2670189,17.1280755 C45.3658113,17.4215472 45.3658113,17.8148679 45.071283,18.1091321 L18.1249811,45.0517358 C17.8315094,45.346 17.5372453,45.346 17.1439245,45.2474717 C12.6356604,43.5825283 7.44456604,44.5598868 3.91735849,48.1858868 C0.488943396,51.6143019 -0.488415094,56.3172453 0.687320755,60.6308302 C0.882,61.3176226 1.76426415,61.5123019 2.25611321,61.0241509 L6.566,56.710566 C8.4285283,54.8480377 11.4636226,54.8480377 13.3261509,56.710566 C15.1894717,58.5728302 15.1894717,61.6081887 13.3261509,63.4704528 L9.01626415,67.7813962 C8.52811321,68.2695472 8.72279245,69.1518113 9.40958491,69.3493962 C13.6243774,70.5251321 18.4224151,69.5448679 21.7549434,66.1164528 C25.3817358,62.4904528 26.2632075,57.2983019 24.6941509,52.8888302 C24.5953585,52.5953585 24.5953585,52.2020377 24.8888302,51.9088302 L51.9310189,24.8663774 C52.2255472,24.5721132 52.5190189,24.5721132 52.9120755,24.6709057 C57.4206038,26.3355849 62.6124906,25.3584906 66.1399623,21.7324906 C69.4724906,18.3999623 70.5483774,13.6008679 69.3726415,9.38607547 C69.1779623,8.69954717 68.2967547,8.50486792 67.8038491,8.99381132 L63.3914717,13.2078113 C61.5318491,15.1659623 58.5923774,15.1659623 56.7301132,13.2078113" id="Fill-1" sketch:type="MSShapeGroup"></path>
                <path d="M24.6904528,33.0009057 L33.0204528,24.6709057 C33.5093962,24.1827547 33.5093962,23.3004906 33.0204528,22.8083774 L12.6396226,2.43124528 C9.99441509,-0.214490566 5.2914717,-0.507962264 2.45079245,2.13698113 C-0.488415094,4.88150943 -0.587207547,9.58471698 2.25611321,12.4251321 L22.8318868,33.0009057 C23.3200377,33.4898491 24.2023019,33.4898491 24.6904528,33.0009057" id="Fill-2" sketch:type="MSShapeGroup"></path>
                <path d="M66.2347925,60.336566 C66.0401132,60.1416226 65.8417358,59.9432453 65.6470566,59.8484151 L62.0210566,57.9848302 C61.9222642,57.8863019 61.7275849,57.7901509 61.6277358,57.6916226 L43.991434,40.0553208 C43.5024906,39.5661132 42.6210189,39.5661132 42.1291698,40.0553208 L39.9723774,42.2121132 C39.4831698,42.7002642 39.4831698,43.5825283 39.9723774,44.0743774 L57.6086792,61.7106792 C57.7074717,61.8105283 57.8033585,62.0052075 57.9021509,62.1037358 L59.7654717,65.7307925 C59.8642642,65.9254717 60.0589434,66.1241132 60.2536226,66.3187925 L65.0561509,69.5514717 C65.6441509,69.9447925 66.5253585,69.846 67.014566,69.3567925 L69.1713585,67.2 C69.6595094,66.7118491 69.7593585,65.8295849 69.3660377,65.2415849 L66.2347925,60.336566" id="Fill-3" sketch:type="MSShapeGroup"></path>
            </g>
        </g>
    </g>
</svg>